<?xml version='1.0' encoding='utf-8'?>
<svg xmlns="http://www.w3.org/2000/svg" enable-background="new 0 0 2703.214 1272.608" version="1.1" viewBox="0 0 2703.214 1272.608">
<style type="text/css">
	.st0{enable-background:new    ;}
</style>
		<path class="st0" d="m932.38 934.99c-1.361-5.3-5.642-8.657-11.531-9.293-0.512-0.055-1.01-0.082-1.495-0.082-5.119 0-8.762 2.99-10.844 7.075-2.176-4.264-5.889-7.03-11.304-7.03-0.358 0-0.724 0.012-1.098 0.037-5.385 0.355-10.011 3.575-11.469 9.853-2.622 11.292 9.788 22.835 23.87 34.065 14.977-11.154 26.661-23.76 23.871-34.625z"/>
		<path class="st0" d="m1795.9 1091.5c-1.361-5.3-5.642-8.657-11.531-9.293-0.512-0.055-1.01-0.082-1.495-0.082-5.119 0-8.762 2.99-10.844 7.075-2.176-4.264-5.889-7.03-11.304-7.03-0.358 0-0.724 0.012-1.098 0.037-5.385 0.355-10.011 3.575-11.469 9.853-2.622 11.292 9.788 22.835 23.87 34.065 14.977-11.154 26.662-23.76 23.871-34.625z"/>
		<path class="st0" d="m2052.3 247.37c-1.361-5.3-5.642-8.657-11.531-9.293-0.512-0.055-1.01-0.082-1.495-0.082-5.119 0-8.762 2.989-10.844 7.075-2.176-4.264-5.889-7.03-11.304-7.03-0.358 0-0.724 0.012-1.098 0.037-5.385 0.355-10.011 3.575-11.469 9.853-2.622 11.292 9.788 22.836 23.87 34.065 14.977-11.154 26.661-23.761 23.871-34.625z"/>
		<path class="st0" d="m1012.9 378.24c-1.361-5.3-5.642-8.657-11.531-9.293-0.512-0.055-1.01-0.082-1.495-0.082-5.119 0-8.762 2.99-10.844 7.075-2.176-4.264-5.889-7.03-11.304-7.03-0.358 0-0.724 0.012-1.098 0.037-5.385 0.355-10.011 3.575-11.469 9.853-2.622 11.292 9.788 22.836 23.87 34.065 14.977-11.154 26.661-23.761 23.871-34.625z"/>
		<path class="st0" d="m1026.5 955.33c-1.361-5.3-5.642-8.657-11.531-9.293-0.512-0.055-1.01-0.082-1.495-0.082-5.119 0-8.762 2.99-10.844 7.075-2.176-4.264-5.889-7.03-11.304-7.03-0.358 0-0.725 0.012-1.098 0.037-5.385 0.355-10.011 3.575-11.469 9.853-2.622 11.292 9.788 22.836 23.87 34.065 14.977-11.154 26.661-23.76 23.871-34.625z"/>
		<path class="st0" d="m1748 193.27c-1.361-5.3-5.642-8.657-11.531-9.293-0.512-0.055-1.01-0.082-1.495-0.082-5.119 0-8.762 2.99-10.844 7.075-2.176-4.264-5.889-7.03-11.304-7.03-0.358 0-0.724 0.012-1.098 0.037-5.385 0.355-10.011 3.575-11.469 9.853-2.622 11.292 9.788 22.836 23.87 34.065 14.977-11.154 26.661-23.761 23.871-34.625z"/>
		<path class="st0" d="m1986.9 249.57c-1.361-5.3-5.642-8.657-11.531-9.293-0.512-0.055-1.01-0.082-1.495-0.082-5.119 0-8.762 2.99-10.844 7.075-2.176-4.264-5.889-7.03-11.304-7.03-0.358 0-0.724 0.012-1.098 0.037-5.385 0.355-10.011 3.575-11.469 9.853-2.622 11.292 9.788 22.835 23.87 34.065 14.977-11.154 26.661-23.76 23.871-34.625z"/>
		<path class="st0" d="m537.26 1032.6c-1.361-5.3-5.642-8.657-11.531-9.293-0.512-0.055-1.01-0.082-1.495-0.082-5.119 0-8.762 2.99-10.844 7.075-2.176-4.264-5.889-7.03-11.304-7.03-0.358 0-0.724 0.012-1.098 0.037-5.385 0.355-10.011 3.575-11.469 9.853-2.622 11.292 9.788 22.835 23.87 34.065 14.977-11.153 26.662-23.76 23.871-34.625z"/>
		<path class="st0" d="m362.82 964.87c-1.361-5.3-5.642-8.657-11.531-9.293-0.512-0.055-1.01-0.082-1.495-0.082-5.119 0-8.762 2.99-10.844 7.075-2.176-4.264-5.889-7.03-11.304-7.03-0.358 0-0.724 0.012-1.098 0.037-5.385 0.355-10.011 3.575-11.469 9.853-2.622 11.292 9.788 22.836 23.87 34.065 14.977-11.154 26.661-23.76 23.871-34.625z"/>
		<path class="st0" d="m904.26 1109.1c-1.361-5.3-5.642-8.657-11.531-9.293-0.512-0.055-1.01-0.082-1.495-0.082-5.119 0-8.762 2.99-10.844 7.075-2.176-4.264-5.889-7.03-11.304-7.03-0.358 0-0.724 0.012-1.098 0.037-5.385 0.355-10.011 3.575-11.469 9.853-2.622 11.292 9.788 22.835 23.87 34.065 14.977-11.153 26.661-23.76 23.871-34.625z"/>
		<path class="st0" d="m396.23 1031.9c-1.361-5.3-5.642-8.657-11.531-9.293-0.512-0.055-1.01-0.082-1.495-0.082-5.119 0-8.762 2.99-10.844 7.076-2.176-4.264-5.889-7.03-11.304-7.03-0.358 0-0.724 0.012-1.098 0.037-5.385 0.355-10.011 3.575-11.469 9.853-2.622 11.292 9.788 22.835 23.87 34.065 14.977-11.155 26.661-23.761 23.871-34.626z"/>
		<path class="st0" d="m2278 112.66c-1.361-5.3-5.642-8.657-11.531-9.293-0.512-0.055-1.01-0.082-1.495-0.082-5.119 0-8.762 2.989-10.844 7.075-2.176-4.264-5.889-7.03-11.303-7.03-0.358 0-0.725 0.012-1.098 0.037-5.385 0.355-10.011 3.575-11.469 9.853-2.622 11.292 9.788 22.836 23.87 34.065 14.976-11.154 26.661-23.76 23.87-34.625z"/>
		<path class="st0" d="m747.83 1157.4c-1.361-5.3-5.642-8.657-11.531-9.293-0.512-0.055-1.01-0.082-1.495-0.082-5.119 0-8.762 2.99-10.844 7.075-2.176-4.264-5.889-7.03-11.304-7.03-0.358 0-0.724 0.012-1.098 0.037-5.385 0.355-10.011 3.575-11.469 9.853-2.622 11.292 9.788 22.836 23.87 34.065 14.977-11.153 26.661-23.76 23.871-34.625z"/>
		<path class="st0" d="m2452.9 632.91c-1.361-5.3-5.642-8.657-11.531-9.293-0.512-0.055-1.01-0.082-1.495-0.082-5.119 0-8.761 2.99-10.844 7.075-2.176-4.264-5.889-7.03-11.304-7.03-0.358 0-0.724 0.012-1.098 0.037-5.385 0.355-10.011 3.575-11.469 9.853-2.622 11.292 9.788 22.835 23.87 34.065 14.976-11.153 26.661-23.76 23.871-34.625z"/>
		<path class="st0" d="m2603.6 516.06c-1.361-5.3-5.642-8.657-11.531-9.293-0.512-0.055-1.01-0.082-1.495-0.082-5.119 0-8.762 2.99-10.844 7.075-2.176-4.264-5.889-7.03-11.304-7.03-0.358 0-0.725 0.012-1.098 0.037-5.385 0.355-10.011 3.575-11.469 9.853-2.622 11.292 9.788 22.836 23.871 34.065 14.976-11.154 26.66-23.761 23.87-34.625z"/>
		<path class="st0" d="m1754.1 891.62c-1.361-5.3-5.642-8.657-11.531-9.293-0.512-0.055-1.01-0.082-1.495-0.082-5.119 0-8.762 2.99-10.844 7.075-2.176-4.264-5.889-7.03-11.304-7.03-0.358 0-0.724 0.012-1.098 0.037-5.385 0.355-10.011 3.575-11.469 9.853-2.622 11.292 9.788 22.836 23.87 34.065 14.977-11.154 26.661-23.76 23.871-34.625z"/>
		<path class="st0" d="m2320.2 1102.3c-1.361-5.3-5.642-8.657-11.531-9.293-0.512-0.055-1.01-0.082-1.495-0.082-5.119 0-8.762 2.99-10.844 7.075-2.176-4.264-5.889-7.03-11.303-7.03-0.358 0-0.725 0.012-1.098 0.037-5.385 0.355-10.011 3.575-11.469 9.853-2.622 11.292 9.788 22.836 23.871 34.065 14.975-11.154 26.659-23.76 23.869-34.625z"/>
		<path class="st0" d="m2254.8 223.69c-1.361-5.3-5.642-8.657-11.531-9.293-0.512-0.055-1.01-0.082-1.495-0.082-5.119 0-8.762 2.99-10.844 7.075-2.176-4.264-5.889-7.03-11.304-7.03-0.358 0-0.725 0.012-1.098 0.037-5.385 0.355-10.011 3.575-11.469 9.853-2.622 11.292 9.788 22.836 23.871 34.065 14.976-11.154 26.66-23.761 23.87-34.625z"/>
		<path class="st0" d="m478.02 1070.9c-1.361-5.3-5.642-8.657-11.531-9.293-0.512-0.055-1.01-0.082-1.495-0.082-5.119 0-8.762 2.99-10.844 7.075-2.176-4.264-5.889-7.03-11.304-7.03-0.358 0-0.724 0.012-1.098 0.037-5.385 0.355-10.011 3.575-11.469 9.853-2.622 11.292 9.788 22.835 23.87 34.065 14.977-11.154 26.661-23.76 23.871-34.625z"/>
		<path class="st0" d="m753.1 91.419c-1.361-5.3-5.642-8.657-11.531-9.293-0.512-0.055-1.01-0.082-1.495-0.082-5.119 0-8.762 2.99-10.844 7.075-2.176-4.264-5.889-7.03-11.304-7.03-0.358 0-0.724 0.012-1.098 0.037-5.385 0.355-10.011 3.575-11.469 9.853-2.622 11.292 9.788 22.836 23.87 34.065 14.977-11.154 26.661-23.761 23.871-34.625z"/>
		<path class="st0" d="m1123.2 286.49c-1.361-5.3-5.642-8.657-11.531-9.293-0.512-0.055-1.01-0.082-1.495-0.082-5.119 0-8.762 2.989-10.844 7.075-2.176-4.264-5.889-7.03-11.304-7.03-0.358 0-0.724 0.012-1.098 0.037-5.385 0.355-10.011 3.575-11.469 9.853-2.622 11.292 9.788 22.835 23.87 34.065 14.977-11.153 26.661-23.76 23.871-34.625z"/>
		<path class="st0" d="m2108.8 1080.9c-1.361-5.3-5.642-8.657-11.531-9.293-0.512-0.055-1.01-0.082-1.495-0.082-5.119 0-8.761 2.99-10.844 7.075-2.176-4.264-5.889-7.03-11.304-7.03-0.358 0-0.724 0.012-1.098 0.037-5.385 0.355-10.011 3.575-11.469 9.853-2.622 11.292 9.788 22.836 23.87 34.065 14.977-11.154 26.661-23.761 23.871-34.625z"/>
		<path class="st0" d="m1219.4 883.76c-1.361-5.3-5.642-8.657-11.531-9.293-0.512-0.055-1.01-0.082-1.495-0.082-5.119 0-8.762 2.99-10.844 7.075-2.176-4.264-5.889-7.03-11.304-7.03-0.358 0-0.724 0.012-1.098 0.037-5.385 0.355-10.011 3.575-11.469 9.853-2.622 11.292 9.788 22.836 23.87 34.065 14.977-11.154 26.661-23.76 23.871-34.625z"/>
		<path class="st0" d="m818.24 262.59c-1.361-5.3-5.642-8.657-11.531-9.293-0.512-0.055-1.01-0.082-1.495-0.082-5.119 0-8.762 2.99-10.844 7.075-2.176-4.264-5.889-7.03-11.304-7.03-0.358 0-0.724 0.012-1.098 0.037-5.385 0.355-10.011 3.575-11.469 9.853-2.622 11.292 9.788 22.836 23.87 34.065 14.977-11.154 26.662-23.76 23.871-34.625z"/>
		<path class="st0" d="m1951.1 109.39c-1.361-5.3-5.642-8.657-11.531-9.293-0.512-0.055-1.01-0.082-1.495-0.082-5.119 0-8.762 2.99-10.844 7.075-2.176-4.264-5.889-7.03-11.304-7.03-0.358 0-0.724 0.012-1.098 0.037-5.385 0.355-10.011 3.575-11.469 9.853-2.622 11.292 9.788 22.835 23.87 34.065 14.977-11.154 26.661-23.76 23.871-34.625z"/>
		<path class="st0" d="m2343.1 996.83c-1.361-5.3-5.642-8.657-11.531-9.293-0.512-0.055-1.01-0.082-1.495-0.082-5.119 0-8.762 2.99-10.844 7.075-2.176-4.264-5.889-7.03-11.304-7.03-0.358 0-0.724 0.012-1.098 0.037-5.385 0.355-10.011 3.575-11.469 9.853-2.622 11.292 9.788 22.836 23.87 34.065 14.977-11.153 26.661-23.76 23.871-34.625z"/>
		<path class="st0" d="m1533.2 465.23c-1.361-5.3-5.642-8.657-11.531-9.293-0.512-0.055-1.01-0.082-1.495-0.082-5.119 0-8.762 2.99-10.844 7.075-2.176-4.264-5.889-7.03-11.304-7.03-0.358 0-0.724 0.012-1.098 0.037-5.385 0.355-10.011 3.575-11.469 9.853-2.622 11.292 9.788 22.836 23.87 34.065 14.977-11.154 26.661-23.761 23.871-34.625z"/>
		<path class="st0" d="m1702.2 849.41c-1.361-5.3-5.642-8.657-11.531-9.293-0.512-0.055-1.01-0.082-1.495-0.082-5.119 0-8.762 2.99-10.844 7.075-2.176-4.264-5.889-7.03-11.304-7.03-0.358 0-0.724 0.012-1.098 0.037-5.385 0.355-10.011 3.575-11.469 9.853-2.622 11.292 9.788 22.836 23.87 34.065 14.977-11.153 26.661-23.76 23.871-34.625z"/>
		<path class="st0" d="m682.01 1000.3c-1.361-5.3-5.642-8.657-11.531-9.293-0.512-0.055-1.01-0.082-1.495-0.082-5.119 0-8.762 2.99-10.844 7.075-2.176-4.264-5.889-7.03-11.304-7.03-0.358 0-0.724 0.012-1.098 0.037-5.385 0.355-10.011 3.575-11.469 9.853-2.622 11.292 9.788 22.836 23.87 34.065 14.977-11.153 26.662-23.76 23.871-34.625z"/>
		<path class="st0" d="m668.8 83.37c-1.361-5.3-5.642-8.657-11.531-9.293-0.512-0.055-1.01-0.082-1.495-0.082-5.119 0-8.762 2.989-10.844 7.075-2.176-4.264-5.889-7.03-11.304-7.03-0.358 0-0.724 0.012-1.098 0.037-5.385 0.355-10.011 3.575-11.469 9.853-2.622 11.292 9.788 22.836 23.87 34.065 14.977-11.154 26.661-23.76 23.871-34.625z"/>
		<path class="st0" d="m2066.9 132.93c-1.361-5.3-5.642-8.657-11.531-9.293-0.512-0.055-1.01-0.082-1.495-0.082-5.119 0-8.762 2.989-10.844 7.075-2.176-4.264-5.889-7.03-11.304-7.03-0.358 0-0.724 0.012-1.098 0.037-5.385 0.355-10.011 3.575-11.469 9.853-2.622 11.292 9.788 22.835 23.87 34.065 14.977-11.154 26.661-23.761 23.871-34.625z"/>
		<path class="st0" d="m836.06 1055.1c-1.361-5.3-5.642-8.657-11.531-9.293-0.512-0.055-1.01-0.082-1.495-0.082-5.119 0-8.762 2.99-10.844 7.075-2.176-4.264-5.889-7.03-11.304-7.03-0.358 0-0.725 0.012-1.098 0.037-5.385 0.355-10.011 3.575-11.469 9.853-2.622 11.292 9.788 22.835 23.87 34.065 14.977-11.154 26.661-23.761 23.871-34.625z"/>
		<path class="st0" d="m2174.7 201.41c-1.361-5.3-5.642-8.657-11.531-9.293-0.512-0.055-1.01-0.082-1.495-0.082-5.119 0-8.761 2.99-10.844 7.075-2.176-4.264-5.889-7.03-11.304-7.03-0.358 0-0.725 0.012-1.098 0.037-5.385 0.355-10.011 3.575-11.469 9.853-2.622 11.292 9.788 22.835 23.87 34.065 14.977-11.153 26.661-23.76 23.871-34.625z"/>
		<path class="st0" d="m1682.9 313.56c-1.361-5.3-5.642-8.657-11.531-9.293-0.512-0.055-1.01-0.082-1.495-0.082-5.119 0-8.762 2.989-10.844 7.075-2.176-4.264-5.889-7.03-11.304-7.03-0.358 0-0.724 0.012-1.098 0.037-5.385 0.355-10.011 3.575-11.469 9.853-2.622 11.292 9.788 22.835 23.87 34.065 14.977-11.154 26.661-23.76 23.871-34.625z"/>
		<path class="st0" d="m2223.3 154.39c-1.361-5.3-5.642-8.657-11.531-9.293-0.512-0.055-1.01-0.082-1.495-0.082-5.119 0-8.761 2.99-10.844 7.075-2.176-4.264-5.889-7.03-11.304-7.03-0.358 0-0.724 0.012-1.098 0.037-5.385 0.355-10.011 3.575-11.469 9.853-2.622 11.292 9.788 22.836 23.87 34.065 14.977-11.154 26.661-23.76 23.871-34.625z"/>
		<path class="st0" d="m1358.7 708.98c-1.361-5.3-5.642-8.657-11.531-9.293-0.512-0.055-1.01-0.082-1.495-0.082-5.119 0-8.762 2.99-10.844 7.075-2.176-4.264-5.889-7.03-11.304-7.03-0.358 0-0.724 0.012-1.098 0.037-5.385 0.355-10.011 3.575-11.469 9.853-2.622 11.292 9.788 22.836 23.87 34.065 14.977-11.154 26.661-23.76 23.871-34.625z"/>
		<path class="st0" d="m251.81 644.05c-1.361-5.3-5.642-8.657-11.531-9.293-0.512-0.055-1.01-0.082-1.495-0.082-5.119 0-8.762 2.99-10.844 7.075-2.176-4.264-5.889-7.03-11.304-7.03-0.358 0-0.724 0.012-1.098 0.037-5.385 0.355-10.011 3.575-11.469 9.853-2.622 11.292 9.788 22.836 23.87 34.065 14.977-11.154 26.661-23.76 23.871-34.625z"/>
		<path class="st0" d="m1578.4 825.77c-1.361-5.3-5.642-8.657-11.531-9.293-0.512-0.055-1.01-0.082-1.495-0.082-5.119 0-8.762 2.99-10.844 7.075-2.176-4.264-5.889-7.03-11.304-7.03-0.358 0-0.724 0.012-1.098 0.037-5.385 0.355-10.011 3.575-11.469 9.853-2.622 11.292 9.788 22.836 23.87 34.065 14.977-11.154 26.661-23.76 23.871-34.625z"/>
		<path class="st0" d="m1869.3 214.49c-1.361-5.3-5.642-8.657-11.531-9.293-0.512-0.055-1.01-0.082-1.495-0.082-5.119 0-8.762 2.99-10.844 7.075-2.176-4.264-5.889-7.03-11.304-7.03-0.358 0-0.725 0.012-1.098 0.037-5.385 0.355-10.011 3.575-11.469 9.853-2.622 11.292 9.788 22.836 23.87 34.065 14.977-11.154 26.661-23.761 23.871-34.625z"/>
		<path class="st0" d="m1728.9 1048.6c-1.361-5.3-5.642-8.657-11.531-9.293-0.512-0.055-1.01-0.082-1.495-0.082-5.119 0-8.762 2.99-10.844 7.075-2.176-4.264-5.889-7.03-11.304-7.03-0.358 0-0.724 0.012-1.098 0.037-5.385 0.355-10.011 3.575-11.469 9.853-2.622 11.292 9.788 22.835 23.87 34.065 14.977-11.154 26.661-23.76 23.871-34.625z"/>
		<path class="st0" d="m2106.8 80.603c-1.361-5.3-5.642-8.657-11.531-9.293-0.512-0.055-1.01-0.082-1.495-0.082-5.119 0-8.761 2.99-10.844 7.075-2.176-4.264-5.889-7.03-11.304-7.03-0.358 0-0.724 0.012-1.098 0.037-5.385 0.355-10.011 3.575-11.469 9.853-2.622 11.292 9.788 22.836 23.87 34.065 14.977-11.154 26.662-23.76 23.871-34.625z"/>
		<path class="st0" d="m1806.2 1011.5c-1.361-5.3-5.642-8.657-11.531-9.293-0.512-0.055-1.01-0.082-1.495-0.082-5.119 0-8.762 2.99-10.844 7.075-2.176-4.264-5.889-7.03-11.304-7.03-0.358 0-0.724 0.012-1.098 0.037-5.385 0.355-10.011 3.575-11.469 9.853-2.622 11.292 9.788 22.836 23.87 34.065 14.977-11.154 26.662-23.761 23.871-34.625z"/>
		<path class="st0" d="m1250.1 754.12c-1.361-5.3-5.642-8.657-11.531-9.293-0.512-0.055-1.01-0.082-1.495-0.082-5.119 0-8.762 2.99-10.844 7.075-2.176-4.264-5.889-7.03-11.304-7.03-0.358 0-0.724 0.012-1.098 0.037-5.385 0.355-10.011 3.575-11.469 9.853-2.622 11.292 9.788 22.836 23.87 34.065 14.977-11.154 26.662-23.761 23.871-34.625z"/>
		<path class="st0" d="m435.11 237c-1.361-5.3-5.642-8.657-11.531-9.293-0.512-0.055-1.01-0.082-1.495-0.082-5.119 0-8.762 2.99-10.844 7.075-2.176-4.264-5.889-7.03-11.304-7.03-0.358 0-0.725 0.012-1.098 0.037-5.385 0.355-10.011 3.575-11.469 9.853-2.622 11.292 9.788 22.836 23.87 34.065 14.976-11.154 26.661-23.76 23.871-34.625z"/>
		<path class="st0" d="m503.25 111.38c-1.361-5.3-5.642-8.657-11.531-9.293-0.512-0.055-1.01-0.082-1.495-0.082-5.119 0-8.762 2.989-10.844 7.075-2.176-4.264-5.889-7.03-11.304-7.03-0.358 0-0.724 0.012-1.098 0.037-5.385 0.355-10.011 3.575-11.469 9.853-2.622 11.292 9.788 22.836 23.87 34.065 14.977-11.154 26.661-23.76 23.871-34.625z"/>
		<path class="st0" d="m1212.6 461.04c-1.361-5.3-5.642-8.657-11.531-9.293-0.512-0.055-1.01-0.082-1.495-0.082-5.119 0-8.762 2.99-10.844 7.075-2.176-4.264-5.889-7.03-11.304-7.03-0.358 0-0.724 0.012-1.098 0.037-5.385 0.355-10.011 3.575-11.469 9.853-2.622 11.292 9.788 22.836 23.87 34.065 14.977-11.154 26.661-23.761 23.871-34.625z"/>
		<path class="st0" d="m1019.4 203.75c-1.361-5.3-5.642-8.657-11.531-9.293-0.512-0.055-1.01-0.082-1.495-0.082-5.119 0-8.762 2.989-10.844 7.075-2.176-4.264-5.889-7.03-11.304-7.03-0.358 0-0.724 0.012-1.098 0.037-5.385 0.355-10.011 3.575-11.469 9.853-2.622 11.292 9.788 22.835 23.87 34.065 14.977-11.154 26.662-23.76 23.871-34.625z"/>
		<path class="st0" d="m362.78 194.54c-1.361-5.3-5.642-8.657-11.531-9.293-0.512-0.055-1.01-0.082-1.495-0.082-5.119 0-8.762 2.989-10.844 7.075-2.176-4.264-5.889-7.03-11.304-7.03-0.358 0-0.724 0.012-1.098 0.037-5.385 0.355-10.011 3.575-11.469 9.853-2.622 11.292 9.788 22.835 23.87 34.065 14.977-11.153 26.661-23.76 23.871-34.625z"/>
		<path class="st0" d="m173.23 436.35c-1.361-5.3-5.642-8.657-11.531-9.293-0.512-0.055-1.01-0.082-1.495-0.082-5.119 0-8.762 2.99-10.844 7.075-2.176-4.264-5.889-7.03-11.304-7.03-0.358 0-0.724 0.012-1.098 0.037-5.385 0.355-10.011 3.575-11.469 9.853-2.622 11.292 9.788 22.836 23.87 34.065 14.977-11.154 26.661-23.761 23.871-34.625z"/>
		<path class="st0" d="m1813.9 162.07c-1.361-5.3-5.642-8.657-11.531-9.293-0.512-0.055-1.01-0.082-1.495-0.082-5.119 0-8.762 2.99-10.844 7.075-2.176-4.264-5.889-7.03-11.304-7.03-0.358 0-0.724 0.012-1.098 0.037-5.385 0.355-10.011 3.575-11.469 9.853-2.622 11.292 9.788 22.836 23.87 34.065 14.977-11.154 26.662-23.761 23.871-34.625z"/>
		<path class="st0" d="m627.95 1051.7c-1.361-5.3-5.642-8.657-11.531-9.293-0.512-0.055-1.01-0.082-1.495-0.082-5.119 0-8.762 2.99-10.844 7.075-2.175-4.264-5.889-7.03-11.304-7.03-0.358 0-0.724 0.012-1.098 0.037-5.385 0.355-10.011 3.575-11.469 9.853-2.622 11.292 9.788 22.835 23.87 34.065 14.977-11.153 26.662-23.76 23.871-34.625z"/>
		<path class="st0" d="m248.05 728.07c-1.361-5.3-5.642-8.657-11.531-9.293-0.512-0.055-1.01-0.082-1.495-0.082-5.119 0-8.762 2.99-10.844 7.075-2.176-4.264-5.889-7.03-11.304-7.03-0.358 0-0.724 0.012-1.098 0.037-5.385 0.355-10.011 3.575-11.469 9.853-2.622 11.292 9.788 22.836 23.87 34.065 14.977-11.154 26.662-23.76 23.871-34.625z"/>
		<path class="st0" d="m837.93 189.4c-1.361-5.3-5.642-8.657-11.531-9.293-0.512-0.055-1.01-0.082-1.495-0.082-5.119 0-8.762 2.99-10.844 7.075-2.176-4.264-5.889-7.03-11.304-7.03-0.358 0-0.724 0.012-1.098 0.037-5.385 0.355-10.011 3.575-11.469 9.853-2.622 11.292 9.788 22.836 23.87 34.065 14.977-11.154 26.661-23.761 23.871-34.625z"/>
		<path class="st0" d="m636.9 141.15c-1.361-5.3-5.642-8.657-11.531-9.293-0.512-0.055-1.01-0.082-1.495-0.082-5.119 0-8.762 2.99-10.844 7.075-2.176-4.264-5.889-7.03-11.304-7.03-0.358 0-0.724 0.012-1.098 0.037-5.385 0.355-10.011 3.575-11.469 9.853-2.622 11.292 9.788 22.836 23.87 34.065 14.977-11.154 26.661-23.761 23.871-34.625z"/>
		<path class="st0" d="m769.08 1091.2c-1.361-5.3-5.642-8.657-11.531-9.293-0.512-0.055-1.01-0.082-1.495-0.082-5.119 0-8.762 2.99-10.844 7.075-2.176-4.264-5.889-7.03-11.304-7.03-0.358 0-0.724 0.012-1.098 0.037-5.385 0.355-10.011 3.575-11.469 9.853-2.622 11.292 9.788 22.835 23.87 34.065 14.977-11.153 26.661-23.76 23.871-34.625z"/>
		<path class="st0" d="m2459.6 352.07c-1.361-5.3-5.642-8.657-11.531-9.293-0.512-0.055-1.01-0.082-1.495-0.082-5.119 0-8.762 2.989-10.844 7.075-2.176-4.264-5.889-7.03-11.303-7.03-0.358 0-0.725 0.012-1.098 0.037-5.385 0.355-10.011 3.575-11.469 9.853-2.622 11.292 9.788 22.836 23.87 34.065 14.976-11.154 26.66-23.76 23.87-34.625z"/>
		<path class="st0" d="m2120.3 1006.5c-1.361-5.3-5.642-8.657-11.531-9.293-0.512-0.055-1.01-0.082-1.495-0.082-5.119 0-8.762 2.99-10.844 7.075-2.176-4.264-5.889-7.03-11.304-7.03-0.358 0-0.724 0.012-1.098 0.037-5.385 0.355-10.011 3.575-11.469 9.853-2.622 11.292 9.788 22.836 23.87 34.065 14.977-11.154 26.661-23.76 23.871-34.625z"/>
		<path class="st0" d="m2583 440.42c-1.361-5.3-5.642-8.657-11.531-9.293-0.512-0.055-1.01-0.082-1.495-0.082-5.119 0-8.762 2.99-10.844 7.075-2.176-4.264-5.889-7.03-11.304-7.03-0.358 0-0.724 0.012-1.098 0.037-5.385 0.355-10.011 3.575-11.469 9.853-2.622 11.292 9.788 22.836 23.87 34.065 14.977-11.154 26.661-23.76 23.871-34.625z"/>
		<path class="st0" d="m2271.9 1042.3c-1.361-5.3-5.642-8.657-11.531-9.293-0.512-0.055-1.01-0.082-1.495-0.082-5.119 0-8.762 2.99-10.844 7.075-2.176-4.264-5.889-7.03-11.303-7.03-0.358 0-0.725 0.012-1.098 0.037-5.385 0.355-10.011 3.575-11.469 9.853-2.622 11.292 9.788 22.836 23.87 34.065 14.976-11.154 26.661-23.76 23.87-34.625z"/>
		<path class="st0" d="m2492.9 960.18c-1.361-5.3-5.642-8.657-11.531-9.293-0.512-0.055-1.01-0.082-1.495-0.082-5.119 0-8.761 2.99-10.844 7.075-2.176-4.264-5.889-7.03-11.304-7.03-0.358 0-0.725 0.012-1.098 0.037-5.385 0.355-10.011 3.575-11.469 9.853-2.622 11.292 9.788 22.836 23.87 34.065 14.977-11.154 26.661-23.76 23.871-34.625z"/>
		<path class="st0" d="m2610.6 670.7c-1.361-5.3-5.642-8.657-11.531-9.293-0.512-0.055-1.01-0.082-1.495-0.082-5.119 0-8.761 2.99-10.844 7.075-2.176-4.264-5.889-7.03-11.304-7.03-0.358 0-0.724 0.012-1.098 0.037-5.385 0.355-10.011 3.575-11.469 9.853-2.622 11.292 9.788 22.836 23.87 34.065 14.977-11.154 26.662-23.76 23.871-34.625z"/>
		<path class="st0" d="m242.84 488.1c-1.361-5.3-5.642-8.657-11.531-9.293-0.512-0.055-1.01-0.082-1.495-0.082-5.119 0-8.762 2.99-10.844 7.075-2.176-4.264-5.889-7.03-11.304-7.03-0.358 0-0.724 0.012-1.098 0.037-5.385 0.355-10.011 3.575-11.469 9.853-2.622 11.292 9.788 22.836 23.87 34.065 14.977-11.154 26.661-23.76 23.871-34.625z"/>
		<path class="st0" d="m1325.4 776.6c-1.361-5.3-5.642-8.657-11.531-9.293-0.512-0.055-1.01-0.082-1.495-0.082-5.119 0-8.762 2.99-10.844 7.075-2.176-4.264-5.889-7.03-11.304-7.03-0.358 0-0.724 0.012-1.098 0.037-5.385 0.355-10.011 3.575-11.469 9.853-2.622 11.292 9.788 22.836 23.87 34.065 14.977-11.154 26.661-23.761 23.871-34.625z"/>
		<path class="st0" d="m2376 374.49c-1.361-5.3-5.642-8.657-11.531-9.293-0.512-0.055-1.01-0.082-1.495-0.082-5.119 0-8.762 2.99-10.844 7.075-2.176-4.264-5.889-7.03-11.304-7.03-0.358 0-0.725 0.012-1.098 0.037-5.385 0.355-10.011 3.575-11.469 9.853-2.622 11.292 9.788 22.835 23.871 34.065 14.976-11.153 26.661-23.76 23.87-34.625z"/>
		<path class="st0" d="m2329.8 911.27c-1.361-5.3-5.642-8.657-11.531-9.293-0.512-0.055-1.01-0.082-1.495-0.082-5.119 0-8.762 2.99-10.844 7.075-2.176-4.264-5.889-7.03-11.304-7.03-0.358 0-0.724 0.012-1.098 0.037-5.385 0.355-10.011 3.575-11.469 9.853-2.622 11.292 9.788 22.835 23.87 34.065 14.977-11.154 26.661-23.76 23.871-34.625z"/>
		<path class="st0" d="m227.67 556.28c-1.361-5.3-5.642-8.657-11.531-9.293-0.512-0.055-1.01-0.082-1.495-0.082-5.119 0-8.762 2.989-10.844 7.075-2.176-4.264-5.889-7.03-11.304-7.03-0.358 0-0.724 0.012-1.098 0.037-5.385 0.355-10.011 3.575-11.469 9.853-2.622 11.292 9.788 22.836 23.87 34.065 14.977-11.154 26.662-23.76 23.871-34.625z"/>
		<path class="st0" d="m276.86 797.54c-1.361-5.3-5.642-8.657-11.531-9.293-0.512-0.055-1.01-0.082-1.495-0.082-5.119 0-8.762 2.99-10.844 7.075-2.176-4.264-5.889-7.03-11.304-7.03-0.358 0-0.724 0.012-1.098 0.037-5.385 0.355-10.011 3.575-11.469 9.853-2.622 11.292 9.788 22.836 23.87 34.065 14.977-11.154 26.661-23.761 23.871-34.625z"/>
		<path class="st0" d="m2199.8 990.52c-1.361-5.3-5.642-8.657-11.531-9.293-0.512-0.055-1.01-0.082-1.495-0.082-5.119 0-8.762 2.99-10.844 7.075-2.176-4.264-5.889-7.03-11.304-7.03-0.358 0-0.724 0.012-1.098 0.037-5.385 0.355-10.011 3.575-11.469 9.853-2.622 11.292 9.788 22.836 23.87 34.065 14.977-11.154 26.661-23.761 23.871-34.625z"/>
		<path class="st0" d="m2410.8 430.33c-1.361-5.3-5.642-8.657-11.531-9.293-0.512-0.055-1.01-0.082-1.495-0.082-5.119 0-8.762 2.99-10.844 7.075-2.176-4.264-5.889-7.03-11.304-7.03-0.358 0-0.724 0.012-1.098 0.037-5.385 0.355-10.011 3.575-11.469 9.853-2.622 11.292 9.788 22.836 23.87 34.065 14.977-11.154 26.662-23.76 23.871-34.625z"/>
		<path class="st0" d="m1473.2 722.4c-1.361-5.3-5.642-8.657-11.531-9.293-0.512-0.055-1.01-0.082-1.495-0.082-5.119 0-8.762 2.99-10.844 7.075-2.176-4.264-5.889-7.03-11.304-7.03-0.358 0-0.724 0.012-1.098 0.037-5.385 0.355-10.011 3.575-11.469 9.853-2.622 11.292 9.788 22.836 23.87 34.065 14.977-11.153 26.662-23.76 23.871-34.625z"/>
		<path class="st0" d="m895.35 136.53c-1.361-5.3-5.642-8.657-11.531-9.293-0.512-0.055-1.01-0.082-1.495-0.082-5.119 0-8.762 2.989-10.844 7.075-2.176-4.264-5.889-7.03-11.304-7.03-0.358 0-0.724 0.012-1.098 0.037-5.385 0.355-10.011 3.575-11.469 9.853-2.622 11.292 9.788 22.835 23.87 34.065 14.977-11.154 26.662-23.761 23.871-34.625z"/>
		<path class="st0" d="m1546.6 698.33c-1.361-5.3-5.642-8.657-11.531-9.293-0.512-0.055-1.01-0.082-1.495-0.082-5.119 0-8.762 2.99-10.844 7.075-2.176-4.264-5.889-7.03-11.304-7.03-0.358 0-0.724 0.012-1.098 0.037-5.385 0.355-10.011 3.575-11.469 9.853-2.622 11.292 9.788 22.836 23.87 34.065 14.977-11.154 26.661-23.761 23.871-34.625z"/>
		<path class="st0" d="m2529.5 692.02c-1.361-5.3-5.642-8.657-11.531-9.293-0.512-0.055-1.01-0.082-1.495-0.082-5.119 0-8.761 2.99-10.844 7.075-2.176-4.264-5.889-7.03-11.304-7.03-0.358 0-0.724 0.012-1.098 0.037-5.385 0.355-10.011 3.575-11.469 9.853-2.622 11.292 9.788 22.836 23.87 34.065 14.977-11.154 26.661-23.76 23.871-34.625z"/>
		<path class="st0" d="m831.34 1139c-1.361-5.3-5.642-8.657-11.531-9.293-0.512-0.055-1.01-0.082-1.495-0.082-5.119 0-8.762 2.99-10.844 7.075-2.176-4.264-5.889-7.03-11.304-7.03-0.358 0-0.724 0.012-1.098 0.037-5.385 0.355-10.011 3.575-11.469 9.853-2.622 11.292 9.788 22.836 23.87 34.065 14.977-11.154 26.661-23.76 23.871-34.625z"/>
		<path class="st0" d="m1083.8 911.29c-1.361-5.3-5.642-8.657-11.531-9.293-0.512-0.055-1.01-0.082-1.495-0.082-5.119 0-8.762 2.99-10.844 7.075-2.176-4.264-5.889-7.03-11.304-7.03-0.358 0-0.724 0.012-1.098 0.037-5.385 0.355-10.011 3.575-11.469 9.853-2.622 11.292 9.788 22.836 23.87 34.065 14.977-11.153 26.661-23.76 23.871-34.625z"/>
		<path class="st0" d="m2023.6 1164.5c-1.361-5.3-5.642-8.657-11.531-9.293-0.512-0.055-1.01-0.082-1.495-0.082-5.119 0-8.762 2.99-10.844 7.075-2.176-4.264-5.889-7.03-11.304-7.03-0.358 0-0.724 0.012-1.098 0.037-5.385 0.355-10.011 3.575-11.469 9.853-2.622 11.292 9.788 22.835 23.87 34.065 14.977-11.154 26.661-23.76 23.871-34.625z"/>
		<path class="st0" d="m1072.4 428.5c-1.361-5.3-5.642-8.657-11.531-9.293-0.512-0.055-1.01-0.082-1.495-0.082-5.119 0-8.762 2.99-10.844 7.075-2.176-4.264-5.889-7.03-11.304-7.03-0.358 0-0.724 0.012-1.098 0.037-5.385 0.355-10.011 3.575-11.469 9.853-2.622 11.292 9.788 22.836 23.87 34.065 14.977-11.154 26.661-23.76 23.871-34.625z"/>
		<path class="st0" d="m2439.1 1016.2c-1.361-5.3-5.642-8.657-11.531-9.293-0.512-0.055-1.01-0.082-1.495-0.082-5.119 0-8.761 2.99-10.844 7.075-2.176-4.264-5.889-7.03-11.304-7.03-0.358 0-0.724 0.012-1.098 0.037-5.385 0.355-10.011 3.575-11.469 9.853-2.622 11.292 9.788 22.836 23.87 34.065 14.977-11.154 26.661-23.761 23.871-34.625z"/>
		<path class="st0" d="m155.61 505.98c-1.361-5.3-5.642-8.657-11.531-9.293-0.512-0.055-1.01-0.082-1.495-0.082-5.119 0-8.762 2.99-10.844 7.075-2.176-4.264-5.889-7.03-11.304-7.03-0.358 0-0.724 0.012-1.098 0.037-5.385 0.355-10.011 3.575-11.469 9.853-2.622 11.292 9.788 22.836 23.87 34.065 14.977-11.154 26.661-23.76 23.871-34.625z"/>
		<path class="st0" d="m2174.2 1150.4c-1.361-5.3-5.642-8.657-11.531-9.293-0.512-0.055-1.01-0.082-1.495-0.082-5.119 0-8.762 2.99-10.844 7.075-2.176-4.264-5.889-7.03-11.303-7.03-0.358 0-0.725 0.012-1.098 0.037-5.385 0.355-10.011 3.575-11.469 9.853-2.622 11.292 9.788 22.835 23.87 34.065 14.976-11.154 26.66-23.761 23.87-34.625z"/>
		<path class="st0" d="m190.01 611.32c-1.361-5.3-5.642-8.657-11.531-9.293-0.512-0.055-1.01-0.082-1.495-0.082-5.119 0-8.762 2.99-10.844 7.075-2.176-4.264-5.889-7.03-11.304-7.03-0.358 0-0.724 0.012-1.098 0.037-5.385 0.355-10.011 3.575-11.469 9.853-2.622 11.292 9.788 22.836 23.87 34.065 14.977-11.154 26.661-23.76 23.871-34.625z"/>
		<path class="st0" d="m1872.9 956.04c-1.361-5.3-5.642-8.657-11.531-9.293-0.512-0.055-1.01-0.082-1.495-0.082-5.119 0-8.762 2.99-10.844 7.075-2.176-4.264-5.889-7.03-11.304-7.03-0.358 0-0.725 0.012-1.098 0.037-5.385 0.355-10.011 3.575-11.469 9.853-2.622 11.292 9.788 22.836 23.87 34.065 14.977-11.153 26.661-23.76 23.871-34.625z"/>
		<path class="st0" d="m1628 877.81c-1.361-5.3-5.642-8.657-11.531-9.293-0.512-0.055-1.01-0.082-1.495-0.082-5.119 0-8.762 2.99-10.844 7.075-2.176-4.264-5.889-7.03-11.304-7.03-0.358 0-0.724 0.012-1.098 0.037-5.385 0.355-10.011 3.575-11.469 9.853-2.622 11.292 9.788 22.836 23.87 34.065 14.976-11.154 26.661-23.76 23.871-34.625z"/>
		<path class="st0" d="m1428.5 587.26c-1.361-5.3-5.642-8.657-11.531-9.293-0.512-0.055-1.01-0.082-1.495-0.082-5.119 0-8.762 2.99-10.844 7.075-2.176-4.264-5.889-7.03-11.304-7.03-0.358 0-0.724 0.012-1.098 0.037-5.385 0.355-10.011 3.575-11.469 9.853-2.622 11.292 9.788 22.836 23.87 34.065 14.977-11.154 26.661-23.761 23.871-34.625z"/>
		<path class="st0" d="m374.77 271.13c-1.361-5.3-5.642-8.657-11.531-9.293-0.512-0.055-1.01-0.082-1.495-0.082-5.119 0-8.762 2.99-10.844 7.075-2.176-4.264-5.889-7.03-11.304-7.03-0.358 0-0.725 0.012-1.098 0.037-5.385 0.355-10.011 3.575-11.469 9.853-2.622 11.292 9.788 22.836 23.87 34.065 14.976-11.154 26.661-23.761 23.871-34.625z"/>
		<path class="st0" d="m1892.3 1010.5c-1.361-5.3-5.642-8.657-11.531-9.293-0.512-0.055-1.01-0.082-1.495-0.082-5.119 0-8.762 2.99-10.844 7.075-2.176-4.264-5.889-7.03-11.304-7.03-0.358 0-0.724 0.012-1.098 0.037-5.385 0.355-10.011 3.575-11.469 9.853-2.622 11.292 9.788 22.836 23.87 34.065 14.977-11.153 26.661-23.76 23.871-34.625z"/>
		<path class="st0" d="m2612.1 593.6c-1.361-5.3-5.642-8.657-11.531-9.293-0.512-0.055-1.01-0.082-1.495-0.082-5.119 0-8.762 2.99-10.844 7.075-2.176-4.264-5.889-7.03-11.304-7.03-0.358 0-0.724 0.012-1.098 0.037-5.385 0.355-10.011 3.575-11.469 9.853-2.622 11.292 9.788 22.836 23.87 34.065 14.977-11.154 26.661-23.76 23.871-34.625z"/>
		<path class="st0" d="m1614.1 292.03c-1.361-5.3-5.642-8.657-11.531-9.293-0.512-0.055-1.01-0.082-1.495-0.082-5.119 0-8.762 2.99-10.844 7.075-2.176-4.264-5.889-7.03-11.304-7.03-0.358 0-0.724 0.012-1.098 0.037-5.385 0.355-10.011 3.575-11.469 9.853-2.622 11.292 9.788 22.835 23.87 34.065 14.977-11.154 26.662-23.76 23.871-34.625z"/>
		<path class="st0" d="m500.1 296.08c-1.361-5.3-5.642-8.657-11.531-9.293-0.512-0.055-1.01-0.082-1.495-0.082-5.119 0-8.762 2.99-10.844 7.075-2.176-4.264-5.889-7.03-11.304-7.03-0.358 0-0.724 0.012-1.098 0.037-5.385 0.355-10.011 3.575-11.469 9.853-2.622 11.292 9.788 22.836 23.87 34.065 14.977-11.154 26.661-23.76 23.871-34.625z"/>
		<path class="st0" d="m1163.1 935.94c-1.361-5.3-5.642-8.657-11.531-9.293-0.512-0.055-1.01-0.082-1.495-0.082-5.119 0-8.762 2.99-10.844 7.075-2.176-4.264-5.889-7.03-11.304-7.03-0.358 0-0.724 0.012-1.098 0.037-5.385 0.355-10.011 3.575-11.469 9.853-2.622 11.292 9.788 22.836 23.87 34.065 14.977-11.154 26.661-23.761 23.871-34.625z"/>
		<path class="st0" d="m1285 615.06c-1.361-5.3-5.642-8.657-11.531-9.293-0.512-0.055-1.01-0.082-1.495-0.082-5.119 0-8.762 2.99-10.844 7.075-2.176-4.264-5.889-7.03-11.304-7.03-0.358 0-0.724 0.012-1.098 0.037-5.385 0.355-10.011 3.575-11.469 9.853-2.622 11.292 9.788 22.836 23.87 34.065 14.977-11.154 26.661-23.761 23.871-34.625z"/>
		<path class="st0" d="m356.11 1081.3c-1.361-5.3-5.642-8.657-11.531-9.293-0.512-0.055-1.01-0.082-1.495-0.082-5.119 0-8.762 2.99-10.844 7.075-2.176-4.264-5.889-7.03-11.304-7.03-0.358 0-0.724 0.012-1.098 0.037-5.385 0.355-10.011 3.575-11.469 9.853-2.622 11.292 9.788 22.835 23.87 34.065 14.977-11.154 26.661-23.76 23.871-34.625z"/>
		<path class="st0" d="m2596.5 749.2c-1.361-5.3-5.642-8.657-11.531-9.293-0.512-0.055-1.01-0.082-1.495-0.082-5.119 0-8.762 2.99-10.844 7.075-2.176-4.264-5.889-7.03-11.304-7.03-0.358 0-0.724 0.012-1.098 0.037-5.385 0.355-10.011 3.575-11.469 9.853-2.622 11.292 9.788 22.836 23.87 34.065 14.977-11.154 26.661-23.76 23.871-34.625z"/>
		<path class="st0" d="m1589.1 413.43c-1.361-5.3-5.642-8.657-11.531-9.293-0.512-0.055-1.01-0.082-1.495-0.082-5.119 0-8.762 2.989-10.844 7.075-2.176-4.264-5.889-7.03-11.304-7.03-0.358 0-0.725 0.012-1.098 0.037-5.385 0.355-10.011 3.575-11.469 9.853-2.622 11.292 9.788 22.835 23.87 34.065 14.977-11.154 26.661-23.761 23.871-34.625z"/>
		<path class="st0" d="m1452.1 449.04c-1.361-5.3-5.642-8.657-11.531-9.293-0.512-0.055-1.01-0.082-1.495-0.082-5.119 0-8.762 2.99-10.844 7.075-2.176-4.264-5.889-7.03-11.304-7.03-0.358 0-0.724 0.012-1.098 0.037-5.385 0.355-10.011 3.575-11.469 9.853-2.622 11.292 9.788 22.836 23.87 34.065 14.977-11.154 26.661-23.76 23.871-34.625z"/>
		<path class="st0" d="m309.1 685c-1.361-5.3-5.642-8.657-11.531-9.293-0.512-0.055-1.01-0.082-1.495-0.082-5.119 0-8.762 2.99-10.844 7.075-2.176-4.264-5.889-7.03-11.304-7.03-0.358 0-0.724 0.012-1.098 0.037-5.385 0.355-10.011 3.575-11.469 9.853-2.622 11.292 9.788 22.836 23.87 34.065 14.977-11.154 26.661-23.761 23.871-34.625z"/>
		<path class="st0" d="m589.34 1161.6c-1.361-5.3-5.642-8.657-11.531-9.293-0.512-0.055-1.01-0.082-1.495-0.082-5.119 0-8.762 2.989-10.844 7.075-2.176-4.264-5.889-7.03-11.304-7.03-0.358 0-0.724 0.012-1.098 0.037-5.385 0.355-10.011 3.575-11.469 9.853-2.622 11.292 9.788 22.836 23.87 34.065 14.977-11.153 26.662-23.76 23.871-34.625z"/>
		<path class="st0" d="m2444.9 706.46c-1.361-5.3-5.642-8.657-11.531-9.293-0.512-0.055-1.01-0.082-1.495-0.082-5.119 0-8.762 2.99-10.844 7.075-2.176-4.264-5.889-7.03-11.303-7.03-0.358 0-0.725 0.012-1.098 0.037-5.385 0.355-10.011 3.575-11.469 9.853-2.622 11.292 9.788 22.836 23.87 34.065 14.976-11.154 26.661-23.76 23.87-34.625z"/>
		<path class="st0" d="m1868.9 1065.4c-1.361-5.3-5.642-8.657-11.531-9.293-0.512-0.055-1.01-0.082-1.495-0.082-5.119 0-8.762 2.99-10.844 7.075-2.176-4.264-5.889-7.03-11.304-7.03-0.358 0-0.724 0.012-1.098 0.037-5.385 0.355-10.011 3.575-11.469 9.853-2.622 11.292 9.788 22.836 23.87 34.065 14.977-11.154 26.661-23.76 23.871-34.625z"/>
		<path class="st0" d="m2554.2 370.4c-1.361-5.3-5.642-8.657-11.531-9.293-0.512-0.055-1.01-0.082-1.495-0.082-5.119 0-8.762 2.989-10.844 7.075-2.176-4.264-5.889-7.03-11.304-7.03-0.358 0-0.724 0.012-1.098 0.037-5.385 0.355-10.011 3.575-11.469 9.853-2.622 11.292 9.788 22.835 23.87 34.065 14.977-11.154 26.661-23.76 23.871-34.625z"/>
		<path class="st0" d="m1402.9 507.47c-1.361-5.3-5.642-8.657-11.531-9.293-0.512-0.055-1.01-0.082-1.495-0.082-5.119 0-8.762 2.99-10.844 7.075-2.176-4.264-5.889-7.03-11.304-7.03-0.358 0-0.724 0.012-1.098 0.037-5.385 0.355-10.011 3.575-11.469 9.853-2.622 11.292 9.788 22.835 23.87 34.065 14.977-11.153 26.661-23.76 23.871-34.625z"/>
		<path class="st0" d="m1674.7 430.4c-1.361-5.3-5.642-8.657-11.531-9.293-0.512-0.055-1.01-0.082-1.495-0.082-5.119 0-8.762 2.99-10.844 7.075-2.176-4.264-5.889-7.03-11.304-7.03-0.358 0-0.724 0.012-1.098 0.037-5.385 0.355-10.011 3.575-11.469 9.853-2.622 11.292 9.788 22.836 23.87 34.065 14.977-11.153 26.662-23.76 23.871-34.625z"/>
		<path class="st0" d="m2270.9 291.78c-1.361-5.3-5.642-8.657-11.531-9.293-0.512-0.055-1.01-0.082-1.495-0.082-5.119 0-8.762 2.99-10.844 7.075-2.176-4.264-5.889-7.03-11.303-7.03-0.358 0-0.725 0.012-1.098 0.037-5.385 0.355-10.011 3.575-11.469 9.853-2.622 11.292 9.788 22.836 23.87 34.065 14.976-11.154 26.66-23.76 23.87-34.625z"/>
		<path class="st0" d="m968.53 257.57c-1.361-5.3-5.642-8.657-11.531-9.293-0.512-0.055-1.01-0.082-1.495-0.082-5.119 0-8.762 2.99-10.844 7.075-2.176-4.264-5.889-7.03-11.304-7.03-0.358 0-0.725 0.012-1.098 0.037-5.385 0.355-10.011 3.575-11.469 9.853-2.622 11.292 9.788 22.836 23.87 34.065 14.977-11.154 26.662-23.76 23.871-34.625z"/>
		<path class="st0" d="m2521.9 305.84c-1.361-5.3-5.642-8.657-11.531-9.293-0.512-0.055-1.01-0.082-1.495-0.082-5.119 0-8.761 2.99-10.844 7.075-2.176-4.264-5.889-7.03-11.304-7.03-0.358 0-0.725 0.012-1.098 0.037-5.385 0.355-10.011 3.575-11.469 9.853-2.622 11.292 9.788 22.836 23.87 34.065 14.977-11.154 26.661-23.76 23.871-34.625z"/>
		<path class="st0" d="m1642.5 365.41c-1.361-5.3-5.642-8.657-11.531-9.293-0.512-0.055-1.01-0.082-1.495-0.082-5.119 0-8.762 2.989-10.844 7.075-2.176-4.264-5.889-7.03-11.304-7.03-0.358 0-0.724 0.012-1.098 0.037-5.385 0.355-10.011 3.575-11.469 9.853-2.622 11.292 9.788 22.836 23.87 34.065 14.977-11.154 26.662-23.761 23.871-34.625z"/>
		<path class="st0" d="m1564.9 532.18c-1.361-5.3-5.642-8.657-11.531-9.293-0.512-0.055-1.01-0.082-1.495-0.082-5.119 0-8.762 2.99-10.844 7.075-2.176-4.264-5.889-7.03-11.304-7.03-0.358 0-0.724 0.012-1.098 0.037-5.385 0.355-10.011 3.575-11.469 9.853-2.622 11.292 9.788 22.836 23.87 34.065 14.977-11.154 26.661-23.76 23.871-34.625z"/>
		<path class="st0" d="m2536.8 895.1c-1.361-5.3-5.642-8.657-11.531-9.293-0.512-0.055-1.01-0.082-1.495-0.082-5.119 0-8.762 2.99-10.844 7.075-2.176-4.264-5.889-7.03-11.304-7.03-0.358 0-0.724 0.012-1.098 0.037-5.385 0.355-10.011 3.575-11.469 9.853-2.622 11.292 9.788 22.835 23.87 34.065 14.977-11.154 26.661-23.761 23.871-34.625z"/>
		<path class="st0" d="m2099 1160.4c-1.361-5.3-5.642-8.657-11.531-9.293-0.512-0.055-1.01-0.082-1.495-0.082-5.119 0-8.762 2.99-10.844 7.075-2.176-4.264-5.889-7.03-11.304-7.03-0.358 0-0.725 0.012-1.098 0.037-5.385 0.355-10.011 3.575-11.469 9.853-2.622 11.292 9.788 22.836 23.871 34.065 14.976-11.154 26.66-23.761 23.87-34.625z"/>
		<path class="st0" d="m2268.8 958.42c-1.361-5.3-5.642-8.657-11.531-9.293-0.512-0.055-1.01-0.082-1.495-0.082-5.119 0-8.761 2.989-10.844 7.075-2.176-4.264-5.889-7.03-11.304-7.03-0.358 0-0.724 0.012-1.098 0.037-5.385 0.355-10.011 3.575-11.469 9.853-2.622 11.292 9.788 22.836 23.87 34.065 14.977-11.153 26.662-23.76 23.871-34.625z"/>
		<path class="st0" d="m824.79 111.73c-1.361-5.3-5.642-8.657-11.531-9.293-0.512-0.055-1.01-0.082-1.495-0.082-5.119 0-8.762 2.989-10.844 7.075-2.176-4.264-5.889-7.03-11.304-7.03-0.358 0-0.725 0.012-1.098 0.037-5.385 0.355-10.011 3.575-11.469 9.853-2.622 11.292 9.788 22.836 23.87 34.065 14.977-11.154 26.661-23.761 23.871-34.625z"/>
		<path class="st0" d="m1514.2 583.38c-1.361-5.3-5.642-8.657-11.531-9.293-0.512-0.055-1.01-0.082-1.495-0.082-5.119 0-8.762 2.99-10.844 7.075-2.176-4.264-5.889-7.03-11.304-7.03-0.358 0-0.724 0.012-1.098 0.037-5.385 0.355-10.011 3.575-11.469 9.853-2.622 11.292 9.788 22.835 23.87 34.065 14.977-11.154 26.662-23.76 23.871-34.625z"/>
		<path class="st0" d="m2419.8 201.75c-1.361-5.3-5.642-8.657-11.531-9.293-0.512-0.055-1.01-0.082-1.495-0.082-5.119 0-8.762 2.99-10.844 7.075-2.176-4.264-5.889-7.03-11.304-7.03-0.358 0-0.725 0.012-1.098 0.037-5.385 0.355-10.011 3.575-11.469 9.853-2.622 11.292 9.788 22.836 23.871 34.065 14.976-11.154 26.66-23.76 23.87-34.625z"/>
		<path class="st0" d="m347.26 829.75c-1.361-5.3-5.642-8.657-11.531-9.293-0.512-0.055-1.01-0.082-1.495-0.082-5.119 0-8.762 2.989-10.844 7.075-2.176-4.264-5.889-7.03-11.304-7.03-0.358 0-0.724 0.012-1.098 0.037-5.385 0.355-10.011 3.575-11.469 9.853-2.622 11.292 9.788 22.836 23.87 34.065 14.977-11.154 26.662-23.76 23.871-34.625z"/>
		<path class="st0" d="m2144 139.37c-1.361-5.3-5.642-8.657-11.531-9.293-0.512-0.055-1.01-0.082-1.495-0.082-5.119 0-8.762 2.99-10.844 7.075-2.176-4.264-5.889-7.03-11.303-7.03-0.358 0-0.725 0.012-1.098 0.037-5.385 0.355-10.011 3.575-11.469 9.853-2.622 11.292 9.788 22.836 23.87 34.065 14.976-11.154 26.66-23.761 23.87-34.625z"/>
		<path class="st0" d="m1196 809.11c-1.361-5.3-5.642-8.657-11.531-9.293-0.512-0.055-1.01-0.082-1.495-0.082-5.119 0-8.762 2.99-10.844 7.075-2.176-4.264-5.889-7.03-11.304-7.03-0.358 0-0.724 0.012-1.098 0.037-5.385 0.355-10.011 3.575-11.469 9.853-2.622 11.292 9.788 22.836 23.87 34.065 14.977-11.154 26.661-23.761 23.871-34.625z"/>
		<path class="st0" d="m1226.2 676.92c-1.361-5.3-5.642-8.657-11.531-9.293-0.512-0.055-1.01-0.082-1.495-0.082-5.119 0-8.762 2.99-10.844 7.075-2.176-4.264-5.889-7.03-11.304-7.03-0.358 0-0.724 0.012-1.098 0.037-5.385 0.355-10.011 3.575-11.469 9.853-2.622 11.292 9.788 22.836 23.87 34.065 14.977-11.153 26.661-23.76 23.871-34.625z"/>
		<path class="st0" d="m301.89 603.47c-1.361-5.3-5.642-8.657-11.531-9.293-0.512-0.055-1.01-0.082-1.495-0.082-5.119 0-8.762 2.99-10.844 7.075-2.176-4.264-5.889-7.03-11.304-7.03-0.358 0-0.725 0.012-1.098 0.037-5.385 0.355-10.011 3.575-11.469 9.853-2.622 11.292 9.788 22.836 23.87 34.065 14.977-11.154 26.661-23.76 23.871-34.625z"/>
		<path class="st0" d="m1178.3 527.82c-1.361-5.3-5.642-8.657-11.531-9.293-0.512-0.055-1.01-0.082-1.495-0.082-5.119 0-8.762 2.99-10.844 7.075-2.176-4.264-5.889-7.03-11.304-7.03-0.358 0-0.724 0.012-1.098 0.037-5.385 0.355-10.011 3.575-11.469 9.853-2.622 11.292 9.788 22.836 23.87 34.065 14.977-11.154 26.661-23.76 23.871-34.625z"/>
		<path class="st0" d="m2381.1 851.47c-1.361-5.3-5.642-8.657-11.531-9.293-0.512-0.055-1.01-0.082-1.495-0.082-5.119 0-8.762 2.99-10.844 7.075-2.176-4.264-5.889-7.03-11.304-7.03-0.358 0-0.725 0.012-1.098 0.037-5.385 0.355-10.011 3.575-11.469 9.853-2.622 11.292 9.788 22.835 23.871 34.065 14.976-11.154 26.66-23.76 23.87-34.625z"/>
		<path class="st0" d="m1094.9 355.26c-1.361-5.3-5.642-8.657-11.531-9.293-0.512-0.055-1.01-0.082-1.495-0.082-5.119 0-8.762 2.99-10.844 7.075-2.176-4.264-5.889-7.03-11.304-7.03-0.358 0-0.724 0.012-1.098 0.037-5.385 0.355-10.011 3.575-11.469 9.853-2.622 11.292 9.788 22.836 23.87 34.065 14.977-11.154 26.661-23.76 23.871-34.625z"/>
		<path class="st0" d="m1127.6 478.06c-1.361-5.3-5.642-8.657-11.531-9.293-0.512-0.055-1.01-0.082-1.495-0.082-5.119 0-8.762 2.99-10.844 7.075-2.176-4.264-5.889-7.03-11.304-7.03-0.358 0-0.724 0.012-1.098 0.037-5.385 0.355-10.011 3.575-11.469 9.853-2.622 11.292 9.788 22.836 23.87 34.065 14.977-11.154 26.661-23.76 23.871-34.625z"/>
		<path class="st0" d="m490.69 175.57c-1.361-5.3-5.642-8.657-11.531-9.293-0.512-0.055-1.01-0.082-1.495-0.082-5.119 0-8.762 2.99-10.844 7.075-2.176-4.264-5.889-7.03-11.304-7.03-0.358 0-0.724 0.012-1.098 0.037-5.385 0.355-10.011 3.575-11.469 9.853-2.622 11.292 9.788 22.835 23.87 34.065 14.977-11.154 26.662-23.76 23.871-34.625z"/>
		<path class="st0" d="m1172.8 733.38c-1.361-5.3-5.642-8.657-11.531-9.293-0.512-0.055-1.01-0.082-1.495-0.082-5.119 0-8.762 2.99-10.844 7.075-2.176-4.264-5.889-7.03-11.304-7.03-0.358 0-0.724 0.012-1.098 0.037-5.385 0.355-10.011 3.575-11.469 9.853-2.622 11.292 9.788 22.836 23.87 34.065 14.977-11.154 26.661-23.761 23.871-34.625z"/>
		<path class="st0" d="m1154.4 406.7c-1.361-5.3-5.642-8.657-11.531-9.293-0.512-0.055-1.01-0.082-1.495-0.082-5.119 0-8.762 2.99-10.844 7.075-2.176-4.264-5.889-7.03-11.304-7.03-0.358 0-0.724 0.012-1.098 0.037-5.385 0.355-10.011 3.575-11.469 9.853-2.622 11.292 9.788 22.836 23.87 34.065 14.977-11.153 26.661-23.76 23.871-34.625z"/>
		<path class="st0" d="m1604.5 952.68c-1.361-5.3-5.642-8.657-11.531-9.293-0.512-0.055-1.01-0.082-1.495-0.082-5.119 0-8.762 2.989-10.844 7.075-2.176-4.264-5.889-7.03-11.304-7.03-0.358 0-0.724 0.012-1.098 0.037-5.385 0.355-10.011 3.575-11.469 9.853-2.622 11.292 9.788 22.836 23.87 34.065 14.977-11.154 26.661-23.76 23.871-34.625z"/>
		<path class="st0" d="m2249.1 1129.6c-1.361-5.3-5.642-8.657-11.531-9.293-0.512-0.055-1.01-0.082-1.495-0.082-5.119 0-8.762 2.99-10.844 7.075-2.176-4.264-5.889-7.03-11.304-7.03-0.358 0-0.725 0.012-1.098 0.037-5.385 0.355-10.011 3.575-11.469 9.853-2.622 11.292 9.788 22.836 23.871 34.065 14.976-11.153 26.66-23.76 23.87-34.625z"/>
		<path class="st0" d="m1925.2 270.49c-1.361-5.3-5.642-8.657-11.531-9.293-0.512-0.055-1.01-0.082-1.495-0.082-5.119 0-8.762 2.989-10.844 7.075-2.176-4.264-5.889-7.03-11.304-7.03-0.358 0-0.724 0.012-1.098 0.037-5.385 0.355-10.011 3.575-11.469 9.853-2.622 11.292 9.788 22.836 23.87 34.065 14.977-11.154 26.661-23.761 23.871-34.625z"/>
		<path class="st0" d="m1881 131.1c-1.361-5.3-5.642-8.657-11.531-9.293-0.512-0.055-1.01-0.082-1.495-0.082-5.119 0-8.762 2.989-10.844 7.075-2.176-4.264-5.889-7.03-11.304-7.03-0.358 0-0.724 0.012-1.098 0.037-5.385 0.355-10.011 3.575-11.469 9.853-2.622 11.292 9.788 22.836 23.87 34.065 14.977-11.154 26.661-23.76 23.871-34.625z"/>
		<path class="st0" d="m1501.1 851.28c-1.361-5.3-5.642-8.657-11.531-9.293-0.512-0.055-1.01-0.082-1.495-0.082-5.119 0-8.762 2.99-10.844 7.075-2.176-4.264-5.889-7.03-11.304-7.03-0.358 0-0.724 0.012-1.098 0.037-5.385 0.355-10.011 3.575-11.469 9.853-2.622 11.292 9.788 22.836 23.87 34.065 14.977-11.153 26.662-23.76 23.871-34.625z"/>
		<path class="st0" d="m2419.9 780.74c-1.361-5.3-5.642-8.657-11.531-9.293-0.512-0.055-1.01-0.082-1.495-0.082-5.119 0-8.761 2.99-10.844 7.075-2.176-4.264-5.889-7.03-11.304-7.03-0.358 0-0.724 0.012-1.098 0.037-5.385 0.355-10.011 3.575-11.469 9.853-2.622 11.292 9.788 22.836 23.87 34.065 14.976-11.154 26.661-23.76 23.871-34.625z"/>
		<path class="st0" d="m2021.7 89.12c-1.361-5.3-5.642-8.657-11.531-9.293-0.512-0.055-1.01-0.082-1.495-0.082-5.119 0-8.762 2.989-10.844 7.075-2.176-4.264-5.889-7.03-11.304-7.03-0.358 0-0.724 0.012-1.098 0.037-5.385 0.355-10.011 3.575-11.469 9.853-2.622 11.292 9.788 22.836 23.87 34.065 14.976-11.154 26.661-23.761 23.871-34.625z"/>
		<path class="st0" d="m511.28 968.13c-1.361-5.3-5.642-8.657-11.531-9.293-0.512-0.055-1.01-0.082-1.495-0.082-5.119 0-8.762 2.99-10.844 7.075-2.176-4.264-5.889-7.03-11.304-7.03-0.358 0-0.725 0.012-1.098 0.037-5.385 0.355-10.011 3.575-11.469 9.853-2.622 11.292 9.788 22.836 23.87 34.065 14.977-11.153 26.662-23.76 23.871-34.625z"/>
		<path class="st0" d="m1652.3 801.19c-1.361-5.3-5.642-8.657-11.531-9.293-0.512-0.055-1.01-0.082-1.495-0.082-5.119 0-8.762 2.99-10.844 7.075-2.176-4.264-5.889-7.03-11.304-7.03-0.358 0-0.724 0.012-1.098 0.037-5.385 0.355-10.011 3.575-11.469 9.853-2.622 11.292 9.788 22.836 23.87 34.065 14.977-11.153 26.661-23.76 23.871-34.625z"/>
		<path class="st0" d="m308.88 534.04c-1.361-5.3-5.642-8.657-11.531-9.293-0.512-0.055-1.01-0.082-1.495-0.082-5.119 0-8.762 2.99-10.844 7.075-2.176-4.264-5.889-7.03-11.304-7.03-0.358 0-0.724 0.012-1.098 0.037-5.385 0.355-10.011 3.575-11.469 9.853-2.622 11.292 9.788 22.836 23.87 34.065 14.977-11.154 26.661-23.761 23.871-34.625z"/>
		<path class="st0" d="m1177.2 333.33c-1.361-5.3-5.642-8.657-11.531-9.293-0.512-0.055-1.01-0.082-1.495-0.082-5.119 0-8.762 2.99-10.844 7.075-2.176-4.264-5.889-7.03-11.304-7.03-0.358 0-0.724 0.012-1.098 0.037-5.385 0.355-10.011 3.575-11.469 9.853-2.622 11.292 9.788 22.835 23.87 34.065 14.977-11.154 26.662-23.761 23.871-34.625z"/>
		<path class="st0" d="m1875 1129.3c-1.361-5.3-5.642-8.657-11.531-9.293-0.512-0.055-1.01-0.082-1.495-0.082-5.119 0-8.762 2.99-10.844 7.075-2.176-4.264-5.889-7.03-11.304-7.03-0.358 0-0.724 0.012-1.098 0.037-5.385 0.355-10.011 3.575-11.469 9.853-2.622 11.292 9.788 22.835 23.87 34.065 14.977-11.153 26.661-23.76 23.871-34.625z"/>
		<path class="st0" d="m998.7 887.26c-1.361-5.3-5.642-8.657-11.531-9.293-0.512-0.055-1.01-0.082-1.495-0.082-5.119 0-8.762 2.99-10.844 7.075-2.176-4.264-5.889-7.03-11.304-7.03-0.358 0-0.724 0.012-1.098 0.037-5.385 0.355-10.011 3.575-11.469 9.853-2.622 11.292 9.788 22.836 23.87 34.065 14.977-11.153 26.661-23.76 23.871-34.625z"/>
		<path class="st0" d="m2571.2 824.36c-1.361-5.3-5.642-8.657-11.531-9.293-0.512-0.055-1.01-0.082-1.495-0.082-5.119 0-8.761 2.99-10.844 7.075-2.176-4.264-5.889-7.03-11.304-7.03-0.358 0-0.725 0.012-1.098 0.037-5.385 0.355-10.011 3.575-11.469 9.853-2.622 11.292 9.788 22.836 23.87 34.065 14.977-11.154 26.661-23.76 23.871-34.625z"/>
		<path class="st0" d="m1674.8 240.13c-1.361-5.3-5.642-8.657-11.531-9.293-0.512-0.055-1.01-0.082-1.495-0.082-5.119 0-8.762 2.99-10.844 7.075-2.176-4.264-5.889-7.03-11.304-7.03-0.358 0-0.724 0.012-1.098 0.037-5.385 0.355-10.011 3.575-11.469 9.853-2.622 11.292 9.788 22.836 23.87 34.065 14.977-11.154 26.662-23.761 23.871-34.625z"/>
		<path class="st0" d="m1599.4 751.31c-1.361-5.3-5.642-8.657-11.531-9.293-0.512-0.055-1.01-0.082-1.495-0.082-5.119 0-8.762 2.99-10.844 7.075-2.176-4.264-5.889-7.03-11.304-7.03-0.358 0-0.724 0.012-1.098 0.037-5.385 0.355-10.011 3.575-11.469 9.853-2.622 11.292 9.788 22.836 23.87 34.065 14.977-11.154 26.661-23.76 23.871-34.625z"/>
		<path class="st0" d="m426.03 152.14c-1.361-5.3-5.642-8.657-11.531-9.293-0.512-0.055-1.01-0.082-1.495-0.082-5.119 0-8.762 2.99-10.844 7.075-2.176-4.264-5.889-7.03-11.304-7.03-0.358 0-0.724 0.012-1.098 0.037-5.385 0.355-10.011 3.575-11.469 9.853-2.622 11.292 9.788 22.836 23.87 34.065 14.977-11.153 26.662-23.76 23.871-34.625z"/>
		<path class="st0" d="m593.09 994.15c-1.361-5.3-5.642-8.657-11.531-9.293-0.512-0.055-1.01-0.082-1.495-0.082-5.119 0-8.762 2.99-10.844 7.075-2.176-4.264-5.889-7.03-11.304-7.03-0.358 0-0.724 0.012-1.098 0.037-5.385 0.355-10.011 3.575-11.469 9.853-2.622 11.292 9.788 22.836 23.87 34.065 14.977-11.154 26.662-23.761 23.871-34.625z"/>
		<path class="st0" d="m324.3 405.18c-1.361-5.3-5.642-8.657-11.531-9.293-0.512-0.055-1.01-0.082-1.495-0.082-5.119 0-8.762 2.989-10.844 7.075-2.176-4.264-5.889-7.03-11.304-7.03-0.358 0-0.724 0.012-1.098 0.037-5.385 0.355-10.011 3.575-11.469 9.853-2.622 11.292 9.788 22.835 23.87 34.065 14.977-11.154 26.662-23.76 23.871-34.625z"/>
		<path class="st0" d="m310.54 913.37c-1.361-5.3-5.642-8.657-11.531-9.293-0.512-0.055-1.01-0.082-1.495-0.082-5.119 0-8.762 2.99-10.844 7.075-2.176-4.264-5.889-7.03-11.304-7.03-0.358 0-0.724 0.012-1.098 0.037-5.385 0.355-10.011 3.575-11.469 9.853-2.622 11.292 9.788 22.836 23.87 34.065 14.977-11.154 26.661-23.76 23.871-34.625z"/>
		<path class="st0" d="m2436.9 492.3c-1.361-5.3-5.642-8.657-11.531-9.293-0.512-0.055-1.01-0.082-1.495-0.082-5.119 0-8.761 2.99-10.844 7.075-2.176-4.264-5.889-7.03-11.304-7.03-0.358 0-0.725 0.012-1.098 0.037-5.385 0.355-10.011 3.575-11.469 9.853-2.622 11.292 9.788 22.836 23.87 34.065 14.977-11.154 26.661-23.76 23.871-34.625z"/>
		<path class="st0" d="m453.46 1000.5c-1.361-5.3-5.642-8.657-11.531-9.293-0.512-0.055-1.01-0.082-1.495-0.082-5.119 0-8.762 2.989-10.844 7.075-2.176-4.264-5.889-7.03-11.304-7.03-0.358 0-0.724 0.012-1.098 0.037-5.385 0.355-10.011 3.575-11.469 9.853-2.622 11.292 9.788 22.836 23.87 34.065 14.977-11.154 26.661-23.761 23.871-34.625z"/>
		<path class="st0" d="m2038.2 1013.7c-1.361-5.3-5.642-8.657-11.531-9.293-0.512-0.055-1.01-0.082-1.495-0.082-5.119 0-8.762 2.99-10.844 7.075-2.176-4.264-5.889-7.03-11.304-7.03-0.358 0-0.724 0.012-1.098 0.037-5.385 0.355-10.011 3.575-11.469 9.853-2.622 11.292 9.788 22.836 23.87 34.065 14.977-11.154 26.662-23.76 23.871-34.625z"/>
		<path class="st0" d="m1934.8 189.18c-1.361-5.3-5.642-8.657-11.531-9.293-0.512-0.055-1.01-0.082-1.495-0.082-5.119 0-8.762 2.99-10.844 7.075-2.176-4.264-5.889-7.03-11.304-7.03-0.358 0-0.724 0.012-1.098 0.037-5.385 0.355-10.011 3.575-11.469 9.853-2.622 11.292 9.788 22.836 23.87 34.065 14.977-11.154 26.661-23.76 23.871-34.625z"/>
		<path class="st0" d="m971.73 998.58c-1.361-5.3-5.642-8.657-11.531-9.293-0.512-0.055-1.01-0.082-1.495-0.082-5.119 0-8.762 2.99-10.844 7.075-2.176-4.264-5.889-7.03-11.304-7.03-0.358 0-0.724 0.012-1.098 0.037-5.385 0.355-10.011 3.575-11.469 9.853-2.622 11.292 9.788 22.836 23.87 34.065 14.977-11.154 26.661-23.761 23.871-34.625z"/>
		<path class="st0" d="m1118.3 787.25c-1.361-5.3-5.642-8.657-11.531-9.293-0.512-0.055-1.01-0.082-1.495-0.082-5.119 0-8.762 2.99-10.844 7.075-2.176-4.264-5.889-7.03-11.304-7.03-0.358 0-0.724 0.012-1.098 0.037-5.385 0.355-10.011 3.575-11.469 9.853-2.622 11.292 9.788 22.836 23.87 34.065 14.976-11.154 26.661-23.761 23.871-34.625z"/>
		<path class="st0" d="m1332.8 484.88c-1.361-5.3-5.642-8.657-11.531-9.293-0.512-0.055-1.01-0.082-1.495-0.082-5.119 0-8.762 2.989-10.844 7.075-2.176-4.264-5.889-7.03-11.304-7.03-0.358 0-0.724 0.012-1.098 0.037-5.385 0.355-10.011 3.575-11.469 9.853-2.622 11.292 9.788 22.835 23.87 34.065 14.977-11.154 26.662-23.76 23.871-34.625z"/>
		<path class="st0" d="m1060.7 838.96c-1.361-5.3-5.642-8.657-11.531-9.293-0.512-0.055-1.01-0.082-1.495-0.082-5.119 0-8.762 2.99-10.844 7.075-2.176-4.264-5.889-7.03-11.304-7.03-0.358 0-0.724 0.012-1.098 0.037-5.385 0.355-10.011 3.575-11.469 9.853-2.622 11.292 9.788 22.836 23.87 34.065 14.977-11.153 26.662-23.76 23.871-34.625z"/>
		<path class="st0" d="m1954.6 1067.6c-1.361-5.3-5.642-8.657-11.531-9.293-0.512-0.055-1.01-0.082-1.495-0.082-5.119 0-8.762 2.99-10.844 7.075-2.176-4.264-5.889-7.03-11.304-7.03-0.358 0-0.724 0.012-1.098 0.037-5.385 0.355-10.011 3.575-11.469 9.853-2.622 11.292 9.788 22.835 23.87 34.065 14.977-11.153 26.661-23.76 23.871-34.625z"/>
		<path class="st0" d="m900.74 221.46c-1.361-5.3-5.642-8.657-11.531-9.293-0.512-0.055-1.01-0.082-1.495-0.082-5.119 0-8.762 2.989-10.844 7.075-2.176-4.264-5.889-7.03-11.304-7.03-0.358 0-0.724 0.012-1.098 0.037-5.385 0.355-10.011 3.575-11.469 9.853-2.622 11.292 9.788 22.835 23.87 34.065 14.977-11.154 26.661-23.76 23.871-34.625z"/>
		<path class="st0" d="m308.59 1029.9c-1.361-5.3-5.642-8.657-11.531-9.293-0.512-0.055-1.01-0.082-1.495-0.082-5.119 0-8.762 2.99-10.844 7.075-2.176-4.264-5.889-7.03-11.304-7.03-0.358 0-0.724 0.012-1.098 0.037-5.385 0.355-10.011 3.575-11.469 9.853-2.622 11.292 9.788 22.835 23.87 34.065 14.977-11.154 26.662-23.76 23.871-34.625z"/>
		<path class="st0" d="m1618.2 480.96c-1.361-5.3-5.642-8.657-11.531-9.293-0.512-0.055-1.01-0.082-1.495-0.082-5.119 0-8.762 2.99-10.844 7.075-2.176-4.264-5.889-7.03-11.304-7.03-0.358 0-0.724 0.012-1.098 0.037-5.385 0.355-10.011 3.575-11.469 9.853-2.622 11.292 9.788 22.836 23.87 34.065 14.977-11.154 26.661-23.76 23.871-34.625z"/>
		<path class="st0" d="m338.52 326.07c-1.361-5.3-5.642-8.657-11.531-9.293-0.512-0.055-1.01-0.082-1.495-0.082-5.119 0-8.762 2.989-10.844 7.075-2.176-4.264-5.889-7.03-11.304-7.03-0.358 0-0.724 0.012-1.098 0.037-5.385 0.355-10.011 3.575-11.469 9.853-2.622 11.292 9.788 22.835 23.87 34.065 14.977-11.153 26.662-23.76 23.871-34.625z"/>
		<path class="st0" d="m2329.1 326.94c-1.361-5.3-5.642-8.657-11.531-9.293-0.512-0.055-1.01-0.082-1.495-0.082-5.119 0-8.761 2.99-10.844 7.075-2.176-4.264-5.889-7.03-11.304-7.03-0.358 0-0.724 0.012-1.098 0.037-5.385 0.355-10.011 3.575-11.469 9.853-2.622 11.292 9.788 22.836 23.87 34.065 14.977-11.154 26.661-23.76 23.871-34.625z"/>
		<path class="st0" d="m2450.7 560.24c-1.361-5.3-5.642-8.657-11.531-9.293-0.512-0.055-1.01-0.082-1.495-0.082-5.119 0-8.762 2.99-10.844 7.075-2.176-4.264-5.889-7.03-11.304-7.03-0.358 0-0.724 0.012-1.098 0.037-5.385 0.355-10.011 3.575-11.469 9.853-2.622 11.292 9.788 22.836 23.87 34.065 14.977-11.154 26.661-23.76 23.871-34.625z"/>
		<path class="st0" d="m196 683.83c-1.361-5.3-5.642-8.657-11.531-9.293-0.512-0.055-1.01-0.082-1.495-0.082-5.119 0-8.762 2.99-10.844 7.075-2.176-4.264-5.889-7.03-11.304-7.03-0.358 0-0.724 0.012-1.098 0.037-5.385 0.355-10.011 3.575-11.469 9.853-2.622 11.292 9.788 22.836 23.87 34.065 14.977-11.154 26.661-23.76 23.871-34.625z"/>
		<path class="st0" d="m210.66 788.13c-1.361-5.3-5.642-8.657-11.531-9.293-0.512-0.055-1.01-0.082-1.495-0.082-5.119 0-8.762 2.99-10.844 7.075-2.176-4.264-5.889-7.03-11.304-7.03-0.358 0-0.725 0.012-1.098 0.037-5.385 0.355-10.011 3.575-11.469 9.853-2.622 11.292 9.788 22.836 23.87 34.065 14.977-11.154 26.661-23.76 23.871-34.625z"/>
		<path class="st0" d="m2090 191.11c-1.361-5.3-5.642-8.657-11.531-9.293-0.512-0.055-1.01-0.082-1.495-0.082-5.119 0-8.762 2.99-10.844 7.075-2.176-4.264-5.889-7.03-11.304-7.03-0.358 0-0.724 0.012-1.098 0.037-5.385 0.355-10.011 3.575-11.469 9.853-2.622 11.292 9.788 22.836 23.87 34.065 14.977-11.154 26.661-23.76 23.871-34.625z"/>
		<path class="st0" d="m1043.5 1032.5c-1.361-5.3-5.642-8.657-11.531-9.293-0.512-0.055-1.01-0.082-1.495-0.082-5.119 0-8.762 2.99-10.844 7.076-2.176-4.264-5.889-7.03-11.304-7.03-0.358 0-0.724 0.012-1.098 0.037-5.385 0.355-10.011 3.575-11.469 9.853-2.622 11.292 9.788 22.836 23.87 34.065 14.977-11.155 26.661-23.761 23.871-34.626z"/>
		<path class="st0" d="m1284 435.19c-1.361-5.3-5.642-8.657-11.531-9.293-0.512-0.055-1.01-0.082-1.495-0.082-5.119 0-8.762 2.99-10.844 7.075-2.176-4.264-5.889-7.03-11.304-7.03-0.358 0-0.724 0.012-1.098 0.037-5.385 0.355-10.011 3.575-11.469 9.853-2.622 11.292 9.788 22.836 23.87 34.065 14.977-11.154 26.661-23.761 23.871-34.625z"/>
		<path class="st0" d="m1104.6 986.07c-1.361-5.3-5.642-8.657-11.531-9.293-0.512-0.055-1.01-0.082-1.495-0.082-5.119 0-8.762 2.99-10.844 7.075-2.176-4.264-5.889-7.03-11.304-7.03-0.358 0-0.724 0.012-1.098 0.037-5.385 0.355-10.011 3.575-11.469 9.853-2.622 11.292 9.788 22.836 23.87 34.065 14.977-11.154 26.661-23.76 23.871-34.625z"/>
		<path class="st0" d="m152.96 801.7c-1.361-5.3-5.642-8.657-11.531-9.293-0.512-0.055-1.01-0.082-1.495-0.082-5.119 0-8.762 2.99-10.844 7.075-2.176-4.264-5.889-7.03-11.304-7.03-0.358 0-0.724 0.012-1.098 0.037-5.385 0.355-10.011 3.575-11.469 9.853-2.622 11.292 9.788 22.836 23.87 34.065 14.977-11.154 26.661-23.761 23.871-34.625z"/>
		<path class="st0" d="m670.18 1105.9c-1.361-5.3-5.642-8.657-11.531-9.293-0.512-0.055-1.01-0.082-1.495-0.082-5.119 0-8.762 2.99-10.844 7.075-2.176-4.264-5.889-7.03-11.304-7.03-0.358 0-0.724 0.012-1.098 0.037-5.385 0.355-10.011 3.575-11.469 9.853-2.622 11.292 9.788 22.835 23.87 34.065 14.977-11.154 26.662-23.76 23.871-34.625z"/>
		<path class="st0" d="m2199 267.64c-1.361-5.3-5.642-8.657-11.531-9.293-0.512-0.055-1.01-0.082-1.495-0.082-5.119 0-8.761 2.99-10.844 7.075-2.176-4.264-5.889-7.03-11.304-7.03-0.358 0-0.724 0.012-1.098 0.037-5.385 0.355-10.011 3.575-11.469 9.853-2.622 11.292 9.788 22.836 23.87 34.065 14.977-11.154 26.662-23.76 23.871-34.625z"/>
		<path class="st0" d="m302.76 244.4c-1.361-5.3-5.642-8.657-11.531-9.293-0.512-0.055-1.01-0.082-1.495-0.082-5.119 0-8.762 2.99-10.844 7.075-2.176-4.264-5.889-7.03-11.304-7.03-0.358 0-0.725 0.012-1.098 0.037-5.385 0.355-10.011 3.575-11.469 9.853-2.622 11.292 9.788 22.835 23.87 34.065 14.976-11.154 26.661-23.76 23.871-34.625z"/>
		<path class="st0" d="m508.78 236.51c-1.361-5.3-5.642-8.657-11.531-9.293-0.512-0.055-1.01-0.082-1.495-0.082-5.119 0-8.762 2.99-10.844 7.075-2.176-4.264-5.889-7.03-11.304-7.03-0.358 0-0.724 0.012-1.098 0.037-5.385 0.355-10.011 3.575-11.469 9.853-2.622 11.292 9.788 22.836 23.87 34.065 14.977-11.154 26.661-23.761 23.871-34.625z"/>
		<path class="st0" d="m325.64 756.58c-1.361-5.3-5.642-8.657-11.531-9.293-0.512-0.055-1.01-0.082-1.495-0.082-5.119 0-8.762 2.99-10.844 7.075-2.176-4.264-5.889-7.03-11.304-7.03-0.358 0-0.724 0.012-1.098 0.037-5.385 0.355-10.011 3.575-11.469 9.853-2.622 11.292 9.788 22.836 23.87 34.065 14.977-11.154 26.661-23.76 23.871-34.625z"/>
		<path class="st0" d="m2007 172.57c-1.361-5.3-5.642-8.657-11.531-9.293-0.512-0.055-1.01-0.082-1.495-0.082-5.119 0-8.762 2.989-10.844 7.075-2.176-4.264-5.889-7.03-11.304-7.03-0.358 0-0.724 0.012-1.098 0.037-5.385 0.355-10.011 3.575-11.469 9.853-2.622 11.292 9.788 22.835 23.87 34.065 14.977-11.154 26.661-23.761 23.871-34.625z"/>
		<path class="st0" d="m747.94 250.26c-1.361-5.3-5.642-8.657-11.531-9.293-0.512-0.055-1.01-0.082-1.495-0.082-5.119 0-8.762 2.99-10.844 7.075-2.176-4.264-5.889-7.03-11.304-7.03-0.358 0-0.725 0.012-1.098 0.037-5.385 0.355-10.011 3.575-11.469 9.853-2.622 11.292 9.788 22.835 23.87 34.065 14.977-11.154 26.661-23.761 23.871-34.625z"/>
		<path class="st0" d="m708.54 133.78c-1.361-5.3-5.642-8.657-11.531-9.293-0.512-0.055-1.01-0.082-1.495-0.082-5.119 0-8.762 2.989-10.844 7.075-2.176-4.264-5.889-7.03-11.304-7.03-0.358 0-0.724 0.012-1.098 0.037-5.385 0.355-10.011 3.575-11.469 9.853-2.622 11.292 9.788 22.836 23.87 34.065 14.977-11.154 26.662-23.76 23.871-34.625z"/>
		<path class="st0" d="m667.8 254.28c-1.361-5.3-5.642-8.657-11.531-9.293-0.512-0.055-1.01-0.082-1.495-0.082-5.119 0-8.762 2.989-10.844 7.075-2.176-4.264-5.889-7.03-11.304-7.03-0.358 0-0.724 0.012-1.098 0.037-5.385 0.355-10.011 3.575-11.469 9.853-2.622 11.292 9.788 22.836 23.87 34.065 14.977-11.154 26.661-23.76 23.871-34.625z"/>
		<path class="st0" d="m1960.6 992.59c-1.361-5.3-5.642-8.657-11.531-9.293-0.512-0.055-1.01-0.082-1.495-0.082-5.119 0-8.762 2.99-10.844 7.075-2.176-4.264-5.889-7.03-11.304-7.03-0.358 0-0.724 0.012-1.098 0.037-5.385 0.355-10.011 3.575-11.469 9.853-2.622 11.292 9.788 22.835 23.87 34.065 14.977-11.153 26.661-23.76 23.871-34.625z"/>
		<path class="st0" d="m704.71 194.46c-1.361-5.3-5.642-8.657-11.531-9.293-0.512-0.055-1.01-0.082-1.495-0.082-5.119 0-8.762 2.989-10.844 7.075-2.176-4.264-5.889-7.03-11.304-7.03-0.358 0-0.724 0.012-1.098 0.037-5.385 0.355-10.011 3.575-11.469 9.853-2.622 11.292 9.788 22.835 23.87 34.065 14.977-11.154 26.661-23.761 23.871-34.625z"/>
		<path class="st0" d="m147.46 731.54c-1.361-5.3-5.642-8.657-11.531-9.293-0.512-0.055-1.01-0.082-1.495-0.082-5.119 0-8.762 2.99-10.844 7.075-2.176-4.264-5.889-7.03-11.304-7.03-0.358 0-0.724 0.012-1.098 0.037-5.385 0.355-10.011 3.575-11.469 9.853-2.622 11.292 9.788 22.836 23.87 34.065 14.977-11.154 26.661-23.76 23.871-34.625z"/>
		<path class="st0" d="m1752 314.49c-1.361-5.3-5.642-8.657-11.531-9.293-0.512-0.055-1.01-0.082-1.495-0.082-5.119 0-8.762 2.99-10.844 7.075-2.176-4.264-5.889-7.03-11.304-7.03-0.358 0-0.724 0.012-1.098 0.037-5.385 0.355-10.011 3.575-11.469 9.853-2.622 11.292 9.788 22.836 23.87 34.065 14.977-11.154 26.661-23.76 23.871-34.625z"/>
		<path class="st0" d="m1561.1 343.32c-1.361-5.3-5.642-8.657-11.531-9.293-0.512-0.055-1.01-0.082-1.495-0.082-5.119 0-8.762 2.99-10.844 7.075-2.176-4.264-5.889-7.03-11.304-7.03-0.358 0-0.724 0.012-1.098 0.037-5.385 0.355-10.011 3.575-11.469 9.853-2.622 11.292 9.788 22.836 23.87 34.065 14.977-11.153 26.661-23.76 23.871-34.625z"/>
		<path class="st0" d="m2508.7 761.2c-1.361-5.3-5.642-8.657-11.531-9.293-0.512-0.055-1.01-0.082-1.495-0.082-5.119 0-8.762 2.99-10.844 7.075-2.176-4.264-5.889-7.03-11.304-7.03-0.358 0-0.724 0.012-1.098 0.037-5.385 0.355-10.011 3.575-11.469 9.853-2.622 11.292 9.788 22.835 23.87 34.065 14.977-11.154 26.661-23.76 23.871-34.625z"/>
		<path class="st0" d="m203.13 364.6c-1.361-5.3-5.642-8.657-11.531-9.293-0.512-0.055-1.01-0.082-1.495-0.082-5.119 0-8.762 2.99-10.844 7.075-2.176-4.264-5.889-7.03-11.304-7.03-0.358 0-0.725 0.012-1.098 0.037-5.385 0.355-10.011 3.575-11.469 9.853-2.622 11.292 9.788 22.836 23.87 34.065 14.977-11.154 26.661-23.76 23.871-34.625z"/>
		<path class="st0" d="m2448.9 889.65c-1.361-5.3-5.642-8.657-11.531-9.293-0.512-0.055-1.01-0.082-1.495-0.082-5.119 0-8.761 2.99-10.844 7.075-2.176-4.264-5.889-7.03-11.304-7.03-0.358 0-0.724 0.012-1.098 0.037-5.385 0.355-10.011 3.575-11.469 9.853-2.622 11.292 9.788 22.836 23.87 34.065 14.977-11.154 26.662-23.761 23.871-34.625z"/>
		<path class="st0" d="m1806.5 249.94c-1.361-5.3-5.642-8.657-11.531-9.293-0.512-0.055-1.01-0.082-1.495-0.082-5.119 0-8.762 2.99-10.844 7.075-2.176-4.264-5.889-7.03-11.304-7.03-0.358 0-0.724 0.012-1.098 0.037-5.385 0.355-10.011 3.575-11.469 9.853-2.622 11.292 9.788 22.836 23.87 34.065 14.977-11.154 26.661-23.76 23.871-34.625z"/>
		<path class="st0" d="m136.12 574.34c-1.361-5.3-5.642-8.657-11.531-9.293-0.512-0.055-1.01-0.082-1.495-0.082-5.119 0-8.762 2.99-10.844 7.075-2.176-4.264-5.889-7.03-11.304-7.03-0.358 0-0.724 0.012-1.098 0.037-5.385 0.355-10.011 3.575-11.469 9.853-2.622 11.292 9.788 22.836 23.87 34.065 14.977-11.154 26.661-23.761 23.871-34.625z"/>
		<path class="st0" d="m2406 290.71c-1.361-5.3-5.642-8.657-11.531-9.293-0.512-0.055-1.01-0.082-1.495-0.082-5.119 0-8.761 2.99-10.844 7.075-2.176-4.264-5.889-7.03-11.304-7.03-0.358 0-0.724 0.012-1.098 0.037-5.385 0.355-10.011 3.575-11.469 9.853-2.622 11.292 9.788 22.836 23.87 34.065 14.977-11.154 26.661-23.76 23.871-34.625z"/>
		<path class="st0" d="m1491.3 647.01c-1.361-5.3-5.642-8.657-11.531-9.293-0.512-0.055-1.01-0.082-1.495-0.082-5.119 0-8.762 2.99-10.844 7.075-2.176-4.264-5.889-7.03-11.304-7.03-0.358 0-0.724 0.012-1.098 0.037-5.385 0.355-10.011 3.575-11.469 9.853-2.622 11.292 9.788 22.836 23.87 34.065 14.977-11.154 26.661-23.76 23.871-34.625z"/>
		<path class="st0" d="m566.15 202.14c-1.361-5.3-5.642-8.657-11.531-9.293-0.512-0.055-1.01-0.082-1.495-0.082-5.119 0-8.762 2.99-10.844 7.075-2.176-4.264-5.889-7.03-11.304-7.03-0.358 0-0.724 0.012-1.098 0.037-5.385 0.355-10.011 3.575-11.469 9.853-2.622 11.292 9.788 22.836 23.87 34.065 14.977-11.154 26.661-23.761 23.871-34.625z"/>
		<path class="st0" d="m1267.5 521.55c-1.361-5.3-5.642-8.657-11.531-9.293-0.512-0.055-1.01-0.082-1.495-0.082-5.119 0-8.762 2.99-10.844 7.075-2.176-4.264-5.889-7.03-11.304-7.03-0.358 0-0.724 0.012-1.098 0.037-5.385 0.355-10.011 3.575-11.469 9.853-2.622 11.292 9.788 22.835 23.87 34.065 14.977-11.154 26.662-23.76 23.871-34.625z"/>
		<path class="st0" d="m976.25 1075.5c-1.361-5.3-5.642-8.657-11.531-9.293-0.512-0.055-1.01-0.082-1.495-0.082-5.119 0-8.762 2.99-10.844 7.075-2.176-4.264-5.889-7.03-11.304-7.03-0.358 0-0.724 0.012-1.098 0.037-5.385 0.355-10.011 3.575-11.469 9.853-2.622 11.292 9.788 22.835 23.87 34.065 14.977-11.153 26.661-23.76 23.871-34.625z"/>
		<path class="st0" d="m186 865.46c-1.361-5.3-5.642-8.657-11.531-9.293-0.512-0.055-1.01-0.082-1.495-0.082-5.119 0-8.762 2.989-10.844 7.075-2.176-4.264-5.889-7.03-11.304-7.03-0.358 0-0.725 0.012-1.098 0.037-5.385 0.355-10.011 3.575-11.469 9.853-2.622 11.292 9.788 22.836 23.87 34.065 14.977-11.153 26.662-23.76 23.871-34.625z"/>
		<path class="st0" d="m2360 152.9c-1.361-5.3-5.642-8.657-11.531-9.293-0.512-0.055-1.01-0.082-1.495-0.082-5.119 0-8.761 2.989-10.844 7.075-2.176-4.264-5.889-7.03-11.304-7.03-0.358 0-0.724 0.012-1.098 0.037-5.385 0.355-10.011 3.575-11.469 9.853-2.622 11.292 9.788 22.836 23.87 34.065 14.977-11.154 26.662-23.76 23.871-34.625z"/>
		<path class="st0" d="m2475.1 252.11c-1.361-5.3-5.642-8.657-11.531-9.293-0.512-0.055-1.01-0.082-1.495-0.082-5.119 0-8.762 2.989-10.844 7.075-2.176-4.264-5.889-7.03-11.303-7.03-0.358 0-0.725 0.012-1.098 0.037-5.385 0.355-10.011 3.575-11.469 9.853-2.622 11.292 9.788 22.836 23.87 34.065 14.976-11.154 26.661-23.761 23.87-34.625z"/>
		<path class="st0" d="m130.8 654.51c-1.361-5.3-5.642-8.657-11.531-9.293-0.512-0.055-1.01-0.082-1.495-0.082-5.119 0-8.762 2.99-10.844 7.075-2.176-4.264-5.889-7.03-11.304-7.03-0.358 0-0.724 0.012-1.098 0.037-5.385 0.355-10.011 3.575-11.469 9.853-2.622 11.292 9.788 22.836 23.87 34.065 14.977-11.154 26.662-23.76 23.871-34.625z"/>
		<path class="st0" d="m1071.2 243.21c-1.361-5.3-5.642-8.657-11.531-9.293-0.512-0.055-1.01-0.082-1.495-0.082-5.119 0-8.762 2.99-10.844 7.075-2.176-4.264-5.889-7.03-11.304-7.03-0.358 0-0.724 0.012-1.098 0.037-5.385 0.355-10.011 3.575-11.469 9.853-2.622 11.292 9.788 22.836 23.87 34.065 14.977-11.154 26.661-23.761 23.871-34.625z"/>
		<path class="st0" d="m1740.8 971.55c-1.361-5.3-5.642-8.657-11.531-9.293-0.512-0.055-1.01-0.082-1.495-0.082-5.119 0-8.762 2.99-10.844 7.075-2.176-4.264-5.889-7.03-11.304-7.03-0.358 0-0.724 0.012-1.098 0.037-5.385 0.355-10.011 3.575-11.469 9.853-2.622 11.292 9.788 22.835 23.87 34.065 14.977-11.154 26.661-23.76 23.871-34.625z"/>
		<path class="st0" d="m562.44 144.37c-1.361-5.3-5.642-8.657-11.531-9.293-0.512-0.055-1.01-0.082-1.495-0.082-5.119 0-8.762 2.989-10.844 7.075-2.176-4.264-5.889-7.03-11.304-7.03-0.358 0-0.724 0.012-1.098 0.037-5.385 0.355-10.011 3.575-11.469 9.853-2.622 11.292 9.788 22.835 23.87 34.065 14.977-11.153 26.661-23.76 23.871-34.625z"/>
		<path class="st0" d="m2189.1 1068.8c-1.361-5.3-5.642-8.657-11.531-9.293-0.512-0.055-1.01-0.082-1.495-0.082-5.119 0-8.762 2.99-10.844 7.075-2.176-4.264-5.889-7.03-11.304-7.03-0.358 0-0.725 0.012-1.098 0.037-5.385 0.355-10.011 3.575-11.469 9.853-2.622 11.292 9.788 22.836 23.871 34.065 14.976-11.154 26.66-23.761 23.87-34.625z"/>
		<path class="st0" d="m1405.2 756.38c-1.361-5.3-5.642-8.657-11.531-9.293-0.512-0.055-1.01-0.082-1.495-0.082-5.119 0-8.762 2.99-10.844 7.075-2.176-4.264-5.889-7.03-11.304-7.03-0.358 0-0.724 0.012-1.098 0.037-5.385 0.355-10.011 3.575-11.469 9.853-2.622 11.292 9.788 22.835 23.87 34.065 14.977-11.154 26.661-23.76 23.871-34.625z"/>
		<path class="st0" d="m2520.7 489.39c-1.361-5.3-5.642-8.657-11.531-9.293-0.512-0.055-1.01-0.082-1.495-0.082-5.119 0-8.761 2.99-10.844 7.075-2.176-4.264-5.889-7.03-11.304-7.03-0.358 0-0.725 0.012-1.098 0.037-5.385 0.355-10.011 3.575-11.469 9.853-2.622 11.292 9.788 22.836 23.87 34.065 14.977-11.154 26.661-23.761 23.871-34.625z"/>
		<path class="st0" d="m719.38 1050.4c-1.361-5.3-5.642-8.657-11.531-9.293-0.512-0.055-1.01-0.082-1.495-0.082-5.119 0-8.762 2.99-10.844 7.075-2.176-4.264-5.889-7.03-11.304-7.03-0.358 0-0.724 0.012-1.098 0.037-5.385 0.355-10.011 3.575-11.469 9.853-2.622 11.292 9.788 22.835 23.87 34.065 14.977-11.154 26.661-23.76 23.871-34.625z"/>
		<path class="st0" d="m1359.1 632.48c-1.361-5.3-5.642-8.657-11.531-9.293-0.512-0.055-1.01-0.082-1.495-0.082-5.119 0-8.762 2.99-10.844 7.075-2.176-4.264-5.889-7.03-11.304-7.03-0.358 0-0.724 0.012-1.098 0.037-5.385 0.355-10.011 3.575-11.469 9.853-2.622 11.292 9.788 22.836 23.87 34.065 14.977-11.154 26.661-23.76 23.871-34.625z"/>
		<path class="st0" d="m907.89 1029.2c-1.361-5.3-5.642-8.657-11.531-9.293-0.512-0.055-1.01-0.082-1.495-0.082-5.119 0-8.762 2.99-10.844 7.076-2.176-4.264-5.889-7.03-11.304-7.03-0.358 0-0.724 0.012-1.098 0.037-5.385 0.355-10.011 3.575-11.469 9.853-2.622 11.292 9.788 22.835 23.87 34.065 14.977-11.155 26.661-23.761 23.871-34.626z"/>
		<path class="st0" d="m1732.2 381.57c-1.361-5.3-5.642-8.657-11.531-9.293-0.512-0.055-1.01-0.082-1.495-0.082-5.119 0-8.762 2.99-10.844 7.075-2.176-4.264-5.889-7.03-11.304-7.03-0.358 0-0.724 0.012-1.098 0.037-5.385 0.355-10.011 3.575-11.469 9.853-2.622 11.292 9.788 22.836 23.87 34.065 14.976-11.154 26.661-23.76 23.871-34.625z"/>
		<path class="st0" d="m386.3 886.17c-1.361-5.3-5.642-8.657-11.531-9.293-0.512-0.055-1.01-0.082-1.495-0.082-5.119 0-8.762 2.99-10.844 7.075-2.176-4.264-5.889-7.03-11.304-7.03-0.358 0-0.724 0.012-1.098 0.037-5.385 0.355-10.011 3.575-11.469 9.853-2.622 11.292 9.788 22.836 23.87 34.065 14.977-11.154 26.661-23.76 23.871-34.625z"/>
		<path class="st0" d="m504.76 1145c-1.361-5.3-5.642-8.657-11.531-9.293-0.512-0.055-1.01-0.082-1.495-0.082-5.119 0-8.762 2.99-10.844 7.075-2.176-4.264-5.889-7.03-11.304-7.03-0.358 0-0.724 0.012-1.098 0.037-5.385 0.355-10.011 3.575-11.469 9.853-2.622 11.292 9.788 22.835 23.87 34.065 14.977-11.154 26.661-23.76 23.871-34.625z"/>
		<path class="st0" d="m668.64 1169.8c-1.361-5.3-5.642-8.657-11.531-9.293-0.512-0.055-1.01-0.082-1.495-0.082-5.119 0-8.762 2.99-10.844 7.075-2.176-4.264-5.889-7.03-11.304-7.03-0.358 0-0.724 0.012-1.098 0.037-5.385 0.355-10.011 3.575-11.469 9.853-2.622 11.292 9.788 22.836 23.87 34.065 14.977-11.154 26.662-23.76 23.871-34.625z"/>
		<path class="st0" d="m583.09 265.15c-1.361-5.3-5.642-8.657-11.531-9.293-0.512-0.055-1.01-0.082-1.495-0.082-5.119 0-8.762 2.99-10.844 7.075-2.176-4.264-5.889-7.03-11.304-7.03-0.358 0-0.724 0.012-1.098 0.037-5.385 0.355-10.011 3.575-11.469 9.853-2.622 11.292 9.788 22.836 23.87 34.065 14.977-11.154 26.661-23.76 23.871-34.625z"/>
		<path class="st0" d="m431.88 328.31c-1.361-5.3-5.642-8.657-11.531-9.293-0.512-0.055-1.01-0.082-1.495-0.082-5.119 0-8.762 2.99-10.844 7.075-2.176-4.264-5.889-7.03-11.304-7.03-0.358 0-0.725 0.012-1.098 0.037-5.385 0.355-10.011 3.575-11.469 9.853-2.622 11.292 9.788 22.836 23.87 34.065 14.977-11.154 26.661-23.76 23.871-34.625z"/>
		<path class="st0" d="m277.09 358.26c-1.361-5.3-5.642-8.657-11.531-9.293-0.512-0.055-1.01-0.082-1.495-0.082-5.119 0-8.762 2.99-10.844 7.075-2.176-4.264-5.889-7.03-11.304-7.03-0.358 0-0.724 0.012-1.098 0.037-5.385 0.355-10.011 3.575-11.469 9.853-2.622 11.292 9.788 22.836 23.87 34.065 14.977-11.154 26.662-23.761 23.871-34.625z"/>
		<path class="st0" d="m1225.4 580.94c-1.361-5.3-5.642-8.657-11.531-9.293-0.512-0.055-1.01-0.082-1.495-0.082-5.119 0-8.762 2.99-10.844 7.075-2.176-4.264-5.889-7.03-11.304-7.03-0.358 0-0.724 0.012-1.098 0.037-5.385 0.355-10.011 3.575-11.469 9.853-2.622 11.292 9.788 22.836 23.87 34.065 14.977-11.154 26.661-23.761 23.871-34.625z"/>
		<path class="st0" d="m1681.2 927.25c-1.361-5.3-5.642-8.657-11.531-9.293-0.512-0.055-1.01-0.082-1.495-0.082-5.119 0-8.762 2.99-10.844 7.075-2.176-4.264-5.889-7.03-11.304-7.03-0.358 0-0.724 0.012-1.098 0.037-5.385 0.355-10.011 3.575-11.469 9.853-2.622 11.292 9.788 22.836 23.87 34.065 14.977-11.154 26.661-23.76 23.871-34.625z"/>
		<path class="st0" d="m2125.6 251.55c-1.361-5.3-5.642-8.657-11.531-9.293-0.512-0.055-1.01-0.082-1.495-0.082-5.119 0-8.762 2.99-10.844 7.075-2.176-4.264-5.889-7.03-11.304-7.03-0.358 0-0.724 0.012-1.098 0.037-5.385 0.355-10.011 3.575-11.469 9.853-2.622 11.292 9.788 22.836 23.87 34.065 14.977-11.154 26.661-23.76 23.871-34.625z"/>
		<path class="st0" d="m2192 91.514c-1.361-5.3-5.642-8.657-11.531-9.293-0.512-0.055-1.01-0.082-1.495-0.082-5.119 0-8.762 2.989-10.844 7.075-2.176-4.264-5.889-7.03-11.304-7.03-0.358 0-0.724 0.012-1.098 0.037-5.385 0.355-10.011 3.575-11.469 9.853-2.622 11.292 9.788 22.836 23.87 34.065 14.977-11.154 26.661-23.76 23.871-34.625z"/>
		<path class="st0" d="m2402.9 945.28c-1.361-5.3-5.642-8.657-11.531-9.293-0.512-0.055-1.01-0.082-1.495-0.082-5.119 0-8.762 2.99-10.844 7.075-2.176-4.264-5.889-7.03-11.304-7.03-0.358 0-0.724 0.012-1.098 0.037-5.385 0.355-10.011 3.575-11.469 9.853-2.622 11.292 9.788 22.836 23.87 34.065 14.977-11.154 26.661-23.761 23.871-34.625z"/>
		<path class="st0" d="m1808.1 931.66c-1.361-5.3-5.642-8.657-11.531-9.293-0.512-0.055-1.01-0.082-1.495-0.082-5.119 0-8.762 2.99-10.844 7.075-2.176-4.264-5.889-7.03-11.304-7.03-0.358 0-0.724 0.012-1.098 0.037-5.385 0.355-10.011 3.575-11.469 9.853-2.622 11.292 9.788 22.836 23.87 34.065 14.977-11.154 26.662-23.76 23.871-34.625z"/>
		<path class="st0" d="m1140.3 861.16c-1.361-5.3-5.642-8.657-11.531-9.293-0.512-0.055-1.01-0.082-1.495-0.082-5.119 0-8.762 2.99-10.844 7.075-2.176-4.264-5.889-7.03-11.304-7.03-0.358 0-0.725 0.012-1.098 0.037-5.385 0.355-10.011 3.575-11.469 9.853-2.622 11.292 9.788 22.835 23.87 34.065 14.977-11.154 26.661-23.76 23.871-34.625z"/>
		<path class="st0" d="m1479.1 521.1c-1.361-5.3-5.642-8.657-11.531-9.293-0.512-0.055-1.01-0.082-1.495-0.082-5.119 0-8.762 2.99-10.844 7.075-2.176-4.264-5.889-7.03-11.304-7.03-0.358 0-0.724 0.012-1.098 0.037-5.385 0.355-10.011 3.575-11.469 9.853-2.622 11.292 9.788 22.836 23.87 34.065 14.977-11.154 26.662-23.761 23.871-34.625z"/>
		<path class="st0" d="m773.03 172.59c-1.361-5.3-5.642-8.657-11.531-9.293-0.512-0.055-1.01-0.082-1.495-0.082-5.119 0-8.762 2.989-10.844 7.075-2.176-4.264-5.889-7.03-11.304-7.03-0.358 0-0.725 0.012-1.098 0.037-5.385 0.355-10.011 3.575-11.469 9.853-2.622 11.292 9.788 22.835 23.87 34.065 14.977-11.153 26.661-23.76 23.871-34.625z"/>
		<path class="st0" d="m776.89 998.24c-1.361-5.3-5.642-8.657-11.531-9.293-0.512-0.055-1.01-0.082-1.495-0.082-5.119 0-8.762 2.99-10.844 7.075-2.176-4.264-5.889-7.03-11.304-7.03-0.358 0-0.724 0.012-1.098 0.037-5.385 0.355-10.011 3.575-11.469 9.853-2.622 11.292 9.788 22.836 23.87 34.065 14.977-11.153 26.661-23.76 23.871-34.625z"/>
		<path class="st0" d="m334.89 467.34c-1.361-5.3-5.642-8.657-11.531-9.293-0.512-0.055-1.01-0.082-1.495-0.082-5.119 0-8.762 2.99-10.844 7.075-2.176-4.264-5.889-7.03-11.304-7.03-0.358 0-0.724 0.012-1.098 0.037-5.385 0.355-10.011 3.575-11.469 9.853-2.622 11.292 9.788 22.836 23.87 34.065 14.977-11.153 26.661-23.76 23.871-34.625z"/>
		<path class="st0" d="m2300.1 177.5c-1.361-5.3-5.642-8.657-11.531-9.293-0.512-0.055-1.01-0.082-1.495-0.082-5.119 0-8.761 2.989-10.844 7.075-2.176-4.264-5.889-7.03-11.304-7.03-0.358 0-0.724 0.012-1.098 0.037-5.385 0.355-10.011 3.575-11.469 9.853-2.622 11.292 9.788 22.836 23.87 34.065 14.977-11.154 26.661-23.761 23.871-34.625z"/>
		<path class="st0" d="m251.18 297.31c-1.361-5.3-5.642-8.657-11.531-9.293-0.512-0.055-1.01-0.082-1.495-0.082-5.119 0-8.762 2.99-10.844 7.075-2.176-4.264-5.889-7.03-11.304-7.03-0.358 0-0.724 0.012-1.098 0.037-5.385 0.355-10.011 3.575-11.469 9.853-2.622 11.292 9.788 22.836 23.87 34.065 14.977-11.154 26.662-23.761 23.871-34.625z"/>
		<path class="st0" d="m1295.4 691.88c-1.361-5.3-5.642-8.657-11.531-9.293-0.512-0.055-1.01-0.082-1.495-0.082-5.119 0-8.762 2.99-10.844 7.075-2.176-4.264-5.889-7.03-11.304-7.03-0.358 0-0.724 0.012-1.098 0.037-5.385 0.355-10.011 3.575-11.469 9.853-2.622 11.292 9.788 22.836 23.87 34.065 14.977-11.154 26.661-23.761 23.871-34.625z"/>
		<path class="st0" d="m423.89 1115.9c-1.361-5.3-5.642-8.657-11.531-9.293-0.512-0.055-1.01-0.082-1.495-0.082-5.119 0-8.762 2.99-10.844 7.075-2.176-4.264-5.889-7.03-11.304-7.03-0.358 0-0.725 0.012-1.098 0.037-5.385 0.355-10.011 3.575-11.469 9.853-2.622 11.292 9.788 22.836 23.87 34.065 14.977-11.153 26.661-23.76 23.871-34.625z"/>
		<path class="st0" d="m1452.3 802.81c-1.361-5.3-5.642-8.657-11.531-9.293-0.512-0.055-1.01-0.082-1.495-0.082-5.119 0-8.762 2.99-10.844 7.075-2.176-4.264-5.889-7.03-11.304-7.03-0.358 0-0.724 0.012-1.098 0.037-5.385 0.355-10.011 3.575-11.469 9.853-2.622 11.292 9.788 22.835 23.87 34.065 14.977-11.153 26.662-23.76 23.871-34.625z"/>
		<path class="st0" d="m959.4 170.34c-1.361-5.3-5.642-8.657-11.531-9.293-0.512-0.055-1.01-0.082-1.495-0.082-5.119 0-8.762 2.99-10.844 7.075-2.176-4.264-5.889-7.03-11.304-7.03-0.358 0-0.724 0.012-1.098 0.037-5.385 0.355-10.011 3.575-11.469 9.853-2.622 11.292 9.788 22.836 23.87 34.065 14.977-11.153 26.661-23.76 23.871-34.625z"/>
		<path class="st0" d="m252.1 425.02c-1.361-5.3-5.642-8.657-11.531-9.293-0.512-0.055-1.01-0.082-1.495-0.082-5.119 0-8.762 2.989-10.844 7.075-2.176-4.264-5.889-7.03-11.304-7.03-0.358 0-0.724 0.012-1.098 0.037-5.385 0.355-10.011 3.575-11.469 9.853-2.622 11.292 9.788 22.835 23.87 34.065 14.977-11.154 26.661-23.761 23.871-34.625z"/>
		<path class="st0" d="m2382 1063.1c-1.361-5.3-5.642-8.657-11.531-9.293-0.512-0.055-1.01-0.082-1.495-0.082-5.119 0-8.762 2.99-10.844 7.075-2.176-4.264-5.889-7.03-11.303-7.03-0.358 0-0.725 0.012-1.098 0.037-5.385 0.355-10.011 3.575-11.469 9.853-2.622 11.292 9.788 22.835 23.87 34.065 14.976-11.154 26.66-23.76 23.87-34.625z"/>
		<path class="st0" d="m886.1 293.57c-1.361-5.3-5.642-8.657-11.531-9.293-0.512-0.055-1.01-0.082-1.495-0.082-5.119 0-8.762 2.99-10.844 7.075-2.176-4.264-5.889-7.03-11.304-7.03-0.358 0-0.724 0.012-1.098 0.037-5.385 0.355-10.011 3.575-11.469 9.853-2.622 11.292 9.788 22.836 23.87 34.065 14.977-11.154 26.662-23.76 23.871-34.625z"/>
		<path class="st0" d="m1806.9 337.94c-1.361-5.3-5.642-8.657-11.531-9.293-0.512-0.055-1.01-0.082-1.495-0.082-5.119 0-8.762 2.989-10.844 7.075-2.176-4.264-5.889-7.03-11.304-7.03-0.358 0-0.724 0.012-1.098 0.037-5.385 0.355-10.011 3.575-11.469 9.853-2.622 11.292 9.788 22.835 23.87 34.065 14.977-11.154 26.661-23.761 23.871-34.625z"/>
		<path class="st0" d="m1033.4 304.49c-1.361-5.3-5.642-8.657-11.531-9.293-0.512-0.055-1.01-0.082-1.495-0.082-5.119 0-8.762 2.989-10.844 7.075-2.176-4.264-5.889-7.03-11.304-7.03-0.358 0-0.725 0.012-1.098 0.037-5.385 0.355-10.011 3.575-11.469 9.853-2.622 11.292 9.788 22.836 23.87 34.065 14.977-11.154 26.661-23.761 23.871-34.625z"/>
		<path class="st0" d="m220.24 927.53c-1.361-5.3-5.642-8.657-11.531-9.293-0.512-0.055-1.01-0.082-1.495-0.082-5.119 0-8.762 2.989-10.844 7.075-2.176-4.264-5.889-7.03-11.304-7.03-0.358 0-0.724 0.012-1.098 0.037-5.385 0.355-10.011 3.575-11.469 9.853-2.622 11.292 9.788 22.836 23.87 34.065 14.977-11.153 26.662-23.76 23.871-34.625z"/>
		<path class="st0" d="m2483.6 828.06c-1.361-5.3-5.642-8.657-11.531-9.293-0.512-0.055-1.01-0.082-1.495-0.082-5.119 0-8.762 2.99-10.844 7.075-2.176-4.264-5.889-7.03-11.304-7.03-0.358 0-0.724 0.012-1.098 0.037-5.385 0.355-10.011 3.575-11.469 9.853-2.622 11.292 9.788 22.836 23.87 34.065 14.977-11.154 26.661-23.76 23.871-34.625z"/>
		<path class="st0" d="m2494.8 421.43c-1.361-5.3-5.642-8.657-11.531-9.293-0.512-0.055-1.01-0.082-1.495-0.082-5.119 0-8.762 2.99-10.844 7.075-2.176-4.264-5.889-7.03-11.304-7.03-0.358 0-0.725 0.012-1.098 0.037-5.385 0.355-10.011 3.575-11.469 9.853-2.622 11.292 9.788 22.836 23.871 34.065 14.976-11.154 26.66-23.76 23.87-34.625z"/>
		<path class="st0" d="m587.94 89.41c-1.361-5.3-5.642-8.657-11.531-9.293-0.512-0.055-1.01-0.082-1.495-0.082-5.119 0-8.762 2.989-10.844 7.075-2.176-4.264-5.889-7.03-11.304-7.03-0.358 0-0.724 0.012-1.098 0.037-5.385 0.355-10.011 3.575-11.469 9.853-2.622 11.292 9.788 22.836 23.87 34.065 14.977-11.154 26.661-23.76 23.871-34.625z"/>
		<path class="st0" d="m2533.8 623.02c-1.361-5.3-5.642-8.657-11.531-9.293-0.512-0.055-1.01-0.082-1.495-0.082-5.119 0-8.761 2.99-10.844 7.075-2.176-4.264-5.889-7.03-11.304-7.03-0.358 0-0.724 0.012-1.098 0.037-5.385 0.355-10.011 3.575-11.469 9.853-2.622 11.292 9.788 22.835 23.87 34.065 14.977-11.153 26.662-23.76 23.871-34.625z"/>
		<path class="st0" d="m1664 1002.8c-1.361-5.3-5.642-8.657-11.531-9.293-0.512-0.055-1.01-0.082-1.495-0.082-5.119 0-8.762 2.989-10.844 7.075-2.176-4.264-5.889-7.03-11.304-7.03-0.358 0-0.724 0.012-1.098 0.037-5.385 0.355-10.011 3.575-11.469 9.853-2.622 11.292 9.788 22.836 23.87 34.065 14.977-11.154 26.661-23.76 23.871-34.625z"/>
		<path class="st0" d="m389.2 389.43c-1.361-5.3-5.642-8.657-11.531-9.293-0.512-0.055-1.01-0.082-1.495-0.082-5.119 0-8.762 2.99-10.844 7.075-2.176-4.264-5.889-7.03-11.304-7.03-0.358 0-0.725 0.012-1.098 0.037-5.385 0.355-10.011 3.575-11.469 9.853-2.622 11.292 9.788 22.836 23.87 34.065 14.977-11.153 26.662-23.76 23.871-34.625z"/>
		<path class="st0" d="m1951.3 1145.7c-1.361-5.3-5.642-8.657-11.531-9.293-0.512-0.055-1.01-0.082-1.495-0.082-5.119 0-8.762 2.99-10.844 7.075-2.176-4.264-5.889-7.03-11.304-7.03-0.358 0-0.724 0.012-1.098 0.037-5.385 0.355-10.011 3.575-11.469 9.853-2.622 11.292 9.788 22.836 23.87 34.065 14.977-11.153 26.661-23.76 23.871-34.625z"/>
		<path class="st0" d="m857.63 971.6c-1.361-5.3-5.642-8.657-11.531-9.293-0.512-0.055-1.01-0.082-1.495-0.082-5.119 0-8.762 2.99-10.844 7.075-2.176-4.264-5.889-7.03-11.304-7.03-0.358 0-0.724 0.012-1.098 0.037-5.385 0.355-10.011 3.575-11.469 9.853-2.622 11.292 9.788 22.836 23.87 34.065 14.977-11.154 26.662-23.76 23.871-34.625z"/>
		<path class="st0" d="m2343.1 240.76c-1.361-5.3-5.642-8.657-11.531-9.293-0.512-0.055-1.01-0.082-1.495-0.082-5.119 0-8.762 2.99-10.844 7.075-2.176-4.264-5.889-7.03-11.303-7.03-0.358 0-0.725 0.012-1.098 0.037-5.385 0.355-10.011 3.575-11.469 9.853-2.622 11.292 9.788 22.836 23.87 34.065 14.976-11.154 26.66-23.76 23.87-34.625z"/>
		<path class="st0" d="m263.92 981.7c-1.361-5.3-5.642-8.657-11.531-9.293-0.512-0.055-1.01-0.082-1.495-0.082-5.119 0-8.762 2.99-10.844 7.075-2.176-4.264-5.889-7.03-11.304-7.03-0.358 0-0.725 0.012-1.098 0.037-5.385 0.355-10.011 3.575-11.469 9.853-2.622 11.292 9.788 22.835 23.87 34.065 14.977-11.154 26.661-23.761 23.871-34.625z"/>
		<path class="st0" d="m265.74 860.22c-1.361-5.3-5.642-8.657-11.531-9.293-0.512-0.055-1.01-0.082-1.495-0.082-5.119 0-8.762 2.99-10.844 7.075-2.176-4.264-5.889-7.03-11.304-7.03-0.358 0-0.725 0.012-1.098 0.037-5.385 0.355-10.011 3.575-11.469 9.853-2.622 11.292 9.788 22.836 23.87 34.065 14.977-11.154 26.661-23.761 23.871-34.625z"/>
		<path class="st0" d="m1525.9 773.66c-1.361-5.3-5.642-8.657-11.531-9.293-0.512-0.055-1.01-0.082-1.495-0.082-5.119 0-8.762 2.99-10.844 7.075-2.176-4.264-5.889-7.03-11.304-7.03-0.358 0-0.724 0.012-1.098 0.037-5.385 0.355-10.011 3.575-11.469 9.853-2.622 11.292 9.788 22.836 23.87 34.065 14.977-11.154 26.661-23.761 23.871-34.625z"/>
		<path class="st0" d="m632.24 202.91c-1.361-5.3-5.642-8.657-11.531-9.293-0.512-0.055-1.01-0.082-1.495-0.082-5.119 0-8.762 2.99-10.844 7.075-2.176-4.264-5.889-7.03-11.304-7.03-0.358 0-0.724 0.012-1.098 0.037-5.385 0.355-10.011 3.575-11.469 9.853-2.622 11.292 9.788 22.836 23.87 34.065 14.977-11.154 26.661-23.76 23.871-34.625z"/>
		<path class="st0" d="m2533.9 556.09c-1.361-5.3-5.642-8.657-11.531-9.293-0.512-0.055-1.01-0.082-1.495-0.082-5.119 0-8.762 2.99-10.844 7.075-2.176-4.264-5.889-7.03-11.303-7.03-0.358 0-0.725 0.012-1.098 0.037-5.385 0.355-10.011 3.575-11.469 9.853-2.622 11.292 9.788 22.836 23.87 34.065 14.976-11.154 26.66-23.76 23.87-34.625z"/>
		<path class="st0" d="m1551.1 901.79c-1.361-5.3-5.642-8.657-11.531-9.293-0.512-0.055-1.01-0.082-1.495-0.082-5.119 0-8.762 2.99-10.844 7.075-2.176-4.264-5.889-7.03-11.304-7.03-0.358 0-0.724 0.012-1.098 0.037-5.385 0.355-10.011 3.575-11.469 9.853-2.622 11.292 9.788 22.836 23.87 34.065 14.977-11.154 26.662-23.761 23.871-34.625z"/>
		<path class="st0" d="m1862.9 296.51c-1.361-5.3-5.642-8.657-11.531-9.293-0.512-0.055-1.01-0.082-1.495-0.082-5.119 0-8.762 2.99-10.844 7.075-2.176-4.264-5.889-7.03-11.304-7.03-0.358 0-0.724 0.012-1.098 0.037-5.385 0.355-10.011 3.575-11.469 9.853-2.622 11.292 9.788 22.836 23.87 34.065 14.977-11.154 26.661-23.761 23.871-34.625z"/>
		<path class="st0" d="m2030.4 1092.5c-1.361-5.3-5.642-8.657-11.531-9.293-0.512-0.055-1.01-0.082-1.495-0.082-5.119 0-8.762 2.99-10.844 7.075-2.176-4.264-5.889-7.03-11.304-7.03-0.358 0-0.724 0.012-1.098 0.037-5.385 0.355-10.011 3.575-11.469 9.853-2.622 11.292 9.788 22.836 23.87 34.065 14.977-11.154 26.661-23.761 23.871-34.625z"/>
		<path class="st0" d="m439.2 932.54c-1.361-5.3-5.642-8.657-11.531-9.293-0.512-0.055-1.01-0.082-1.495-0.082-5.119 0-8.762 2.99-10.844 7.075-2.176-4.264-5.889-7.03-11.304-7.03-0.358 0-0.725 0.012-1.098 0.037-5.385 0.355-10.011 3.575-11.469 9.853-2.622 11.292 9.788 22.836 23.87 34.065 14.977-11.154 26.661-23.761 23.871-34.625z"/>
		<path class="st0" d="m950.98 331.26c-1.361-5.3-5.642-8.657-11.531-9.293-0.512-0.055-1.01-0.082-1.495-0.082-5.119 0-8.762 2.99-10.844 7.075-2.176-4.264-5.889-7.03-11.304-7.03-0.358 0-0.724 0.012-1.098 0.037-5.385 0.355-10.011 3.575-11.469 9.853-2.622 11.292 9.788 22.836 23.87 34.065 14.977-11.154 26.662-23.76 23.871-34.625z"/>
		<path class="st0" d="m1232.2 383.58c-1.361-5.3-5.642-8.657-11.531-9.293-0.512-0.055-1.01-0.082-1.495-0.082-5.119 0-8.762 2.99-10.844 7.075-2.176-4.264-5.889-7.03-11.304-7.03-0.358 0-0.724 0.012-1.098 0.037-5.385 0.355-10.011 3.575-11.469 9.853-2.622 11.292 9.788 22.836 23.87 34.065 14.977-11.153 26.661-23.76 23.871-34.625z"/>
		<path class="st0" d="m1342.1 560.49c-1.361-5.3-5.642-8.657-11.531-9.293-0.512-0.055-1.01-0.082-1.495-0.082-5.119 0-8.762 2.99-10.844 7.075-2.176-4.264-5.889-7.03-11.304-7.03-0.358 0-0.724 0.012-1.098 0.037-5.385 0.355-10.011 3.575-11.469 9.853-2.622 11.292 9.788 22.836 23.87 34.065 14.977-11.154 26.661-23.76 23.871-34.625z"/>
		<path class="st0" d="m1421.8 670.52c-1.361-5.3-5.642-8.657-11.531-9.293-0.512-0.055-1.01-0.082-1.495-0.082-5.119 0-8.762 2.99-10.844 7.075-2.176-4.264-5.889-7.03-11.304-7.03-0.358 0-0.724 0.012-1.098 0.037-5.385 0.355-10.011 3.575-11.469 9.853-2.622 11.292 9.788 22.835 23.87 34.065 14.977-11.154 26.662-23.76 23.871-34.625z"/>
		<path class="st0" d="m1736.2 256.31c-1.361-5.3-5.642-8.657-11.531-9.293-0.512-0.055-1.01-0.082-1.495-0.082-5.119 0-8.762 2.99-10.844 7.075-2.176-4.264-5.889-7.03-11.304-7.03-0.358 0-0.724 0.012-1.098 0.037-5.385 0.355-10.011 3.575-11.469 9.853-2.622 11.292 9.788 22.836 23.87 34.065 14.977-11.153 26.662-23.76 23.871-34.625z"/>
		<path class="st0" d="m569.29 1095.3c-1.361-5.3-5.642-8.657-11.531-9.293-0.512-0.055-1.01-0.082-1.495-0.082-5.119 0-8.762 2.99-10.844 7.075-2.176-4.264-5.889-7.03-11.304-7.03-0.358 0-0.724 0.012-1.098 0.037-5.385 0.355-10.011 3.575-11.469 9.853-2.622 11.292 9.788 22.835 23.87 34.065 14.977-11.154 26.662-23.761 23.871-34.625z"/>
		<path class="st0" d="m1506.7 394.41c-1.361-5.3-5.642-8.657-11.531-9.293-0.512-0.055-1.01-0.082-1.495-0.082-5.119 0-8.762 2.99-10.844 7.075-2.176-4.264-5.889-7.03-11.304-7.03-0.358 0-0.724 0.012-1.098 0.037-5.385 0.355-10.011 3.575-11.469 9.853-2.622 11.292 9.788 22.836 23.87 34.065 14.977-11.154 26.661-23.76 23.871-34.625z"/>
		<path class="st0" d="m1274.1 830.98c-1.361-5.3-5.642-8.657-11.531-9.293-0.512-0.055-1.01-0.082-1.495-0.082-5.119 0-8.762 2.99-10.844 7.075-2.176-4.264-5.889-7.03-11.304-7.03-0.358 0-0.724 0.012-1.098 0.037-5.385 0.355-10.011 3.575-11.469 9.853-2.622 11.292 9.788 22.836 23.87 34.065 14.977-11.154 26.661-23.761 23.871-34.625z"/>
</svg>